<!-- Generator: Adobe Illustrator 19.1.0, SVG Export Plug-In  -->
<svg version="1.1"
	 xmlns="http://www.w3.org/2000/svg" xmlns:xlink="http://www.w3.org/1999/xlink" xmlns:a="http://ns.adobe.com/AdobeSVGViewerExtensions/3.0/"
	 x="0px" y="0px" width="238.4px" height="75.801px" viewBox="0 0 238.4 75.801" style="enable-background:new 0 0 238.4 75.801;"
	 xml:space="preserve">
<style type="text/css">
	.st0{enable-background:new    ;}
	.st1{fill:#807911;}
	.st2{fill:#948C13;}
	.st3{fill:#FCEE21;}
	.st4{fill:#968D14;}
	.st5{fill:#7F7811;}
	.st6{fill:#938B13;}
	.st7{clip-path:url(#SVGID_2_);enable-background:new    ;}
	.st8{fill:#837C11;}
	.st9{fill:#888112;}
	.st10{fill:#8D8512;}
	.st11{fill:#928A13;}
	.st12{fill:#978F14;}
	.st13{fill:#9C9414;}
	.st14{fill:#A19815;}
	.st15{fill:#A69D16;}
	.st16{clip-path:url(#SVGID_4_);enable-background:new    ;}
	.st17{clip-path:url(#SVGID_6_);enable-background:new    ;}
	.st18{fill:#8F8713;}
	.st19{fill:#877F12;}
	.st20{fill:#867F12;}
	.st21{fill:#8C8412;}
	.st22{clip-path:url(#SVGID_8_);enable-background:new    ;}
	.st23{clip-path:url(#SVGID_10_);enable-background:new    ;}
	.st24{clip-path:url(#SVGID_12_);enable-background:new    ;}
	.st25{clip-path:url(#SVGID_14_);enable-background:new    ;}
	.st26{clip-path:url(#SVGID_16_);enable-background:new    ;}
	.st27{fill:#8A8212;}
	.st28{fill:#898212;}
	.st29{clip-path:url(#SVGID_18_);enable-background:new    ;}
	.st30{clip-path:url(#SVGID_20_);enable-background:new    ;}
	.st31{clip-path:url(#SVGID_22_);enable-background:new    ;}
	.st32{clip-path:url(#SVGID_24_);enable-background:new    ;}
	.st33{clip-path:url(#SVGID_26_);enable-background:new    ;}
	.st34{clip-path:url(#SVGID_28_);enable-background:new    ;}
	.st35{clip-path:url(#SVGID_30_);enable-background:new    ;}
	.st36{clip-path:url(#SVGID_32_);enable-background:new    ;}
	.st37{clip-path:url(#SVGID_34_);enable-background:new    ;}
	.st38{clip-path:url(#SVGID_36_);enable-background:new    ;}
	.st39{clip-path:url(#SVGID_38_);enable-background:new    ;}
	.st40{clip-path:url(#SVGID_40_);enable-background:new    ;}
	.st41{clip-path:url(#SVGID_42_);enable-background:new    ;}
	.st42{clip-path:url(#SVGID_44_);enable-background:new    ;}
	.st43{clip-path:url(#SVGID_46_);enable-background:new    ;}
	.st44{clip-path:url(#SVGID_48_);enable-background:new    ;}
	.st45{clip-path:url(#SVGID_50_);enable-background:new    ;}
	.st46{clip-path:url(#SVGID_52_);enable-background:new    ;}
	.st47{clip-path:url(#SVGID_54_);enable-background:new    ;}
	.st48{clip-path:url(#SVGID_56_);enable-background:new    ;}
	.st49{clip-path:url(#SVGID_58_);enable-background:new    ;}
	.st50{clip-path:url(#SVGID_60_);enable-background:new    ;}
</style>
<defs>
</defs>
<g>
	<g>
		<g class="st0">
			<g>
				<polygon class="st1" points="13.039,25.415 29.871,39.467 17.156,40.837 0,26.903 				"/>
			</g>
			<g>
				<polygon class="st2" points="36.701,14.423 52.875,28.902 52.226,37.059 35.974,22.797 				"/>
			</g>
			<g>
				<polygon class="st1" points="35.974,22.797 52.226,37.059 39.283,38.453 22.693,24.313 				"/>
			</g>
			<g>
				<polygon class="st3" points="36.701,14.423 35.974,22.797 22.693,24.313 19.242,61.763 9.452,62.734 13.039,25.415 0,26.903 
					0.839,18.634 				"/>
			</g>
			<g>
				<polygon class="st4" points="22.693,24.313 39.283,38.453 36.191,74.91 19.242,61.763 				"/>
			</g>
			<g>
				<polygon class="st5" points="19.242,61.763 36.191,74.91 26.651,75.801 9.452,62.734 				"/>
			</g>
		</g>
		<g class="st0">
			<g>
				<polygon class="st3" points="41.124,13.903 50.018,12.859 49.412,20.313 40.493,21.335 				"/>
			</g>
			<g>
				<polygon class="st6" points="50.018,12.859 65.85,27.463 65.311,34.722 49.412,20.313 				"/>
			</g>
			<g>
				<polygon class="st1" points="49.412,20.313 65.311,34.722 56.622,35.662 40.493,21.335 				"/>
			</g>
		</g>
		<g class="st0">
			<g>
				<polygon class="st3" points="37.212,59.979 40.059,26.442 48.996,25.437 46.263,59.081 				"/>
			</g>
			<g>
				<polygon class="st6" points="48.996,25.437 64.941,39.711 62.511,72.454 46.263,59.081 				"/>
			</g>
			<g>
				<polygon class="st5" points="46.263,59.081 62.511,72.454 53.697,73.276 37.212,59.979 				"/>
			</g>
		</g>
		<g class="st0">
			<g class="st0">
				<defs>
					<path id="SVGID_1_" class="st0" d="M76.225,30.052l15.279,14.321c-0.263-0.246-0.558-0.455-0.884-0.627
						c-0.326-0.171-0.683-0.305-1.073-0.401c-0.389-0.096-0.809-0.155-1.261-0.176c-0.452-0.021-0.935-0.005-1.449,0.048
						c-0.355,0.037-0.697,0.092-1.026,0.167c-0.329,0.075-0.645,0.168-0.948,0.28c-0.303,0.112-0.593,0.244-0.87,0.394
						c-0.277,0.151-0.542,0.32-0.793,0.509c-0.251,0.189-0.493,0.388-0.723,0.598c-0.231,0.21-0.451,0.43-0.66,0.66
						c-0.21,0.231-0.409,0.472-0.598,0.725c-0.189,0.252-0.367,0.516-0.535,0.791c-0.168,0.275-0.326,0.555-0.473,0.84
						c-0.147,0.285-0.284,0.576-0.411,0.872c-0.126,0.296-0.242,0.598-0.347,0.905c-0.105,0.307-0.2,0.619-0.284,0.937
						c-0.084,0.318-0.16,0.634-0.228,0.95c-0.068,0.315-0.128,0.63-0.181,0.943c-0.052,0.313-0.097,0.625-0.134,0.936
						c-0.037,0.311-0.066,0.62-0.087,0.929c-0.02,0.296-0.033,0.594-0.037,0.892c-0.005,0.298-0.002,0.597,0.009,0.897
						c0.011,0.3,0.029,0.6,0.055,0.902c0.026,0.302,0.06,0.604,0.102,0.907c0.042,0.303,0.094,0.598,0.156,0.885
						c0.062,0.287,0.135,0.565,0.218,0.835c0.083,0.27,0.177,0.532,0.28,0.785c0.104,0.253,0.218,0.498,0.343,0.735
						c0.083,0.158,0.172,0.31,0.266,0.456c0.095,0.147,0.195,0.288,0.301,0.424c0.106,0.136,0.219,0.266,0.337,0.391
						c0.118,0.125,0.242,0.244,0.372,0.358L65.251,49.377c-0.133-0.116-0.259-0.238-0.38-0.366c-0.12-0.128-0.235-0.261-0.343-0.4
						c-0.108-0.139-0.21-0.284-0.306-0.434c-0.096-0.15-0.186-0.306-0.27-0.467c-0.126-0.242-0.242-0.493-0.346-0.753
						c-0.105-0.26-0.199-0.528-0.282-0.805c-0.083-0.277-0.156-0.562-0.218-0.856c-0.062-0.294-0.113-0.597-0.154-0.908
						c-0.041-0.311-0.073-0.622-0.098-0.931c-0.025-0.31-0.042-0.618-0.05-0.926c-0.009-0.308-0.01-0.615-0.003-0.921
						c0.007-0.306,0.022-0.612,0.045-0.916c0.024-0.317,0.056-0.635,0.096-0.955c0.04-0.319,0.088-0.64,0.144-0.962
						c0.056-0.322,0.12-0.645,0.192-0.97c0.072-0.324,0.152-0.65,0.241-0.977c0.088-0.327,0.187-0.648,0.298-0.964
						c0.11-0.316,0.231-0.626,0.363-0.932c0.132-0.305,0.274-0.605,0.428-0.899c0.153-0.294,0.317-0.583,0.491-0.866
						c0.174-0.283,0.359-0.555,0.555-0.815c0.196-0.26,0.402-0.51,0.619-0.748c0.217-0.238,0.444-0.466,0.682-0.683
						c0.238-0.217,0.487-0.423,0.746-0.619c0.26-0.196,0.532-0.372,0.818-0.528c0.286-0.156,0.584-0.293,0.896-0.411
						c0.312-0.117,0.637-0.215,0.975-0.294c0.338-0.079,0.69-0.138,1.054-0.178c0.529-0.058,1.025-0.078,1.488-0.059
						c0.464,0.019,0.895,0.076,1.293,0.173c0.399,0.096,0.765,0.231,1.098,0.405C75.656,29.588,75.957,29.8,76.225,30.052z"/>
				</defs>
				<clipPath id="SVGID_2_">
					<use xlink:href="#SVGID_1_"  style="overflow:visible;"/>
				</clipPath>
				<g class="st7">
					<path class="st8" d="M76.225,30.052l15.279,14.321c-0.153-0.143-0.317-0.274-0.491-0.392c-0.174-0.118-0.359-0.223-0.555-0.316
						c-0.196-0.092-0.402-0.172-0.619-0.239c-0.217-0.067-0.445-0.121-0.683-0.163L73.821,28.927c0.244,0.041,0.478,0.096,0.7,0.163
						c0.222,0.067,0.434,0.148,0.634,0.242c0.2,0.094,0.39,0.201,0.568,0.321C75.902,29.772,76.069,29.905,76.225,30.052"/>
					<path class="st9" d="M73.821,28.927l15.334,14.336c-0.171-0.03-0.348-0.053-0.53-0.07c-0.182-0.017-0.37-0.027-0.563-0.031
						c-0.193-0.004-0.392-0.001-0.596,0.008c-0.204,0.009-0.414,0.025-0.629,0.047c-0.008,0.001-0.016,0.002-0.025,0.003
						s-0.016,0.002-0.025,0.003s-0.016,0.002-0.025,0.003s-0.016,0.002-0.025,0.003L71.341,28.907
						c0.008-0.001,0.017-0.002,0.025-0.003c0.008-0.001,0.017-0.002,0.025-0.003c0.008-0.001,0.017-0.002,0.025-0.003
						c0.008-0.001,0.017-0.002,0.025-0.003c0.221-0.024,0.436-0.042,0.646-0.053c0.21-0.011,0.414-0.015,0.612-0.012
						c0.198,0.003,0.391,0.012,0.578,0.028C73.465,28.874,73.646,28.897,73.821,28.927"/>
					<path class="st10" d="M71.341,28.907l15.398,14.322c-0.124,0.014-0.245,0.031-0.366,0.049c-0.12,0.019-0.239,0.04-0.356,0.063
						c-0.117,0.023-0.233,0.049-0.347,0.077c-0.114,0.028-0.226,0.058-0.337,0.091L69.896,29.204
						c0.114-0.034,0.23-0.066,0.347-0.096c0.117-0.03,0.236-0.057,0.356-0.081c0.12-0.025,0.242-0.047,0.366-0.067
						C71.089,28.94,71.214,28.922,71.341,28.907"/>
					<path class="st11" d="M69.896,29.204l15.438,14.305c-0.083,0.024-0.164,0.05-0.245,0.077c-0.081,0.027-0.161,0.055-0.24,0.085
						c-0.079,0.03-0.157,0.06-0.235,0.093c-0.077,0.032-0.154,0.066-0.229,0.1L68.919,29.575c0.078-0.036,0.157-0.071,0.236-0.105
						c0.08-0.034,0.16-0.066,0.242-0.097c0.081-0.031,0.164-0.06,0.247-0.089C69.726,29.257,69.811,29.23,69.896,29.204"/>
					<path class="st12" d="M68.919,29.575l15.465,14.289c-0.066,0.03-0.131,0.061-0.195,0.094c-0.064,0.032-0.128,0.065-0.191,0.1
						c-0.063,0.034-0.125,0.069-0.187,0.106c-0.062,0.036-0.123,0.073-0.183,0.112L68.139,30.001
						c0.062-0.04,0.125-0.078,0.189-0.116c0.064-0.038,0.128-0.074,0.193-0.11c0.065-0.036,0.131-0.07,0.197-0.104
						C68.784,29.639,68.851,29.606,68.919,29.575"/>
					<path class="st13" d="M68.139,30.001l15.488,14.273c-0.036,0.023-0.073,0.046-0.109,0.07s-0.072,0.048-0.107,0.072
						c-0.036,0.024-0.071,0.049-0.106,0.075c-0.035,0.025-0.07,0.051-0.104,0.077c-0.036,0.027-0.072,0.054-0.107,0.082
						c-0.035,0.027-0.071,0.055-0.106,0.083s-0.07,0.056-0.104,0.084s-0.069,0.057-0.103,0.085L67.265,30.651
						c0.035-0.03,0.071-0.059,0.106-0.088c0.036-0.029,0.072-0.058,0.108-0.087c0.036-0.029,0.073-0.057,0.109-0.086
						s0.073-0.056,0.11-0.084c0.036-0.027,0.072-0.053,0.108-0.08c0.036-0.026,0.073-0.052,0.109-0.077s0.074-0.05,0.111-0.075
						C68.064,30.049,68.101,30.025,68.139,30.001"/>
					<path class="st14" d="M67.265,30.651l15.515,14.251c-0.098,0.082-0.195,0.166-0.289,0.252
						c-0.095,0.086-0.188,0.173-0.279,0.263c-0.091,0.089-0.181,0.18-0.268,0.273c-0.088,0.093-0.174,0.188-0.258,0.284
						L66.135,31.759c0.087-0.1,0.176-0.197,0.267-0.293c0.091-0.096,0.183-0.19,0.277-0.282c0.094-0.092,0.19-0.183,0.288-0.272
						C67.064,30.823,67.164,30.736,67.265,30.651"/>
					<path class="st15" d="M66.135,31.759l15.552,14.215c-0.092,0.105-0.182,0.213-0.269,0.322c-0.088,0.11-0.173,0.221-0.257,0.335
						c-0.083,0.114-0.165,0.23-0.244,0.349c-0.079,0.118-0.157,0.239-0.232,0.362c-0.168,0.275-0.326,0.555-0.473,0.84
						c-0.147,0.285-0.284,0.576-0.411,0.872c-0.126,0.296-0.242,0.598-0.347,0.905c-0.105,0.307-0.2,0.619-0.284,0.937
						c-0.084,0.318-0.16,0.634-0.228,0.95c-0.068,0.315-0.128,0.63-0.181,0.943c-0.052,0.313-0.097,0.625-0.134,0.936
						c-0.037,0.311-0.066,0.62-0.087,0.929c-0.003,0.051-0.007,0.101-0.01,0.152s-0.006,0.102-0.008,0.152
						c-0.003,0.051-0.005,0.102-0.007,0.152c-0.002,0.051-0.004,0.102-0.006,0.153L62.809,41.321
						c0.002-0.052,0.004-0.105,0.007-0.157s0.005-0.104,0.008-0.157c0.003-0.052,0.006-0.104,0.01-0.156
						c0.003-0.052,0.007-0.104,0.011-0.156c0.024-0.317,0.056-0.635,0.096-0.955c0.04-0.319,0.088-0.64,0.144-0.962
						c0.056-0.322,0.12-0.645,0.192-0.97c0.072-0.324,0.152-0.65,0.241-0.977c0.088-0.327,0.187-0.648,0.298-0.964
						c0.11-0.316,0.231-0.626,0.363-0.932c0.132-0.305,0.274-0.605,0.428-0.899c0.153-0.294,0.317-0.583,0.491-0.866
						c0.078-0.127,0.158-0.251,0.24-0.373c0.082-0.122,0.167-0.242,0.253-0.36s0.175-0.233,0.266-0.346S66.04,31.868,66.135,31.759"
						/>
					<path class="st14" d="M62.809,41.321l15.702,13.942c-0.008,0.247-0.011,0.494-0.008,0.742c0.003,0.248,0.011,0.496,0.024,0.745
						c0.013,0.249,0.032,0.499,0.056,0.749c0.024,0.25,0.053,0.501,0.088,0.752c0.003,0.019,0.005,0.037,0.008,0.056
						s0.005,0.037,0.008,0.056c0.003,0.018,0.005,0.037,0.008,0.055c0.003,0.018,0.006,0.037,0.008,0.055l-15.72-13.856
						c-0.003-0.019-0.006-0.038-0.008-0.057c-0.003-0.019-0.005-0.038-0.008-0.057c-0.003-0.019-0.005-0.038-0.008-0.057
						c-0.003-0.019-0.005-0.038-0.008-0.057c-0.034-0.258-0.062-0.515-0.085-0.772c-0.023-0.257-0.04-0.513-0.052-0.769
						c-0.012-0.256-0.018-0.511-0.019-0.765C62.795,41.828,62.799,41.574,62.809,41.321"/>
					<path class="st13" d="M62.983,44.617l15.72,13.856c0.024,0.152,0.05,0.301,0.079,0.448c0.029,0.147,0.061,0.292,0.095,0.435
						c0.034,0.143,0.071,0.284,0.111,0.423c0.04,0.139,0.082,0.275,0.127,0.41L63.394,46.378c-0.045-0.138-0.088-0.278-0.127-0.42
						c-0.04-0.142-0.077-0.287-0.111-0.434c-0.034-0.147-0.066-0.296-0.094-0.447C63.033,44.926,63.007,44.773,62.983,44.617"/>
					<path class="st12" d="M63.394,46.378l15.721,13.811c0.038,0.115,0.079,0.228,0.121,0.339c0.042,0.112,0.086,0.221,0.132,0.33
						c0.046,0.108,0.094,0.215,0.144,0.321c0.05,0.105,0.102,0.209,0.156,0.311c0.001,0.003,0.003,0.006,0.004,0.008
						c0.001,0.003,0.003,0.006,0.004,0.008s0.003,0.006,0.004,0.008c0.002,0.003,0.003,0.006,0.005,0.008L63.97,47.745
						c-0.002-0.003-0.003-0.006-0.005-0.009c-0.002-0.003-0.003-0.006-0.005-0.009s-0.003-0.006-0.005-0.009
						s-0.003-0.006-0.005-0.009c-0.055-0.105-0.107-0.211-0.158-0.319c-0.051-0.108-0.099-0.217-0.146-0.328
						c-0.047-0.111-0.091-0.224-0.134-0.338C63.473,46.611,63.433,46.495,63.394,46.378"/>
					<path class="st11" d="M63.97,47.745l15.715,13.778c0.042,0.079,0.086,0.156,0.131,0.232c0.045,0.076,0.092,0.151,0.14,0.224
						c0.048,0.073,0.098,0.145,0.149,0.216c0.051,0.071,0.103,0.14,0.157,0.208L64.556,48.646c-0.055-0.069-0.108-0.14-0.16-0.213
						c-0.052-0.072-0.102-0.146-0.151-0.221c-0.049-0.075-0.096-0.152-0.142-0.23C64.057,47.905,64.013,47.826,63.97,47.745"/>
					<path class="st10" d="M64.556,48.646l15.706,13.758c0.051,0.065,0.104,0.128,0.158,0.19c0.054,0.062,0.11,0.123,0.166,0.183
						c0.057,0.06,0.115,0.118,0.175,0.175c0.06,0.057,0.121,0.113,0.183,0.167L65.251,49.377c-0.064-0.056-0.126-0.113-0.187-0.171
						c-0.061-0.058-0.12-0.118-0.178-0.179c-0.058-0.061-0.114-0.123-0.17-0.187C64.662,48.777,64.608,48.713,64.556,48.646"/>
				</g>
			</g>
			<g class="st0">
				<defs>
					<path id="SVGID_3_" class="st0" d="M83.851,25.047l15.048,14.5c0.178,0.171,0.349,0.349,0.513,0.534
						c0.164,0.185,0.322,0.377,0.472,0.576c0.151,0.199,0.295,0.405,0.432,0.618c0.137,0.213,0.268,0.433,0.392,0.66
						c0.199,0.365,0.373,0.749,0.523,1.154c0.15,0.405,0.274,0.831,0.374,1.277c0.1,0.446,0.175,0.913,0.225,1.401
						c0.05,0.488,0.076,0.997,0.076,1.527L86.887,32.985c0.003-0.544-0.02-1.067-0.068-1.568c-0.048-0.501-0.122-0.98-0.222-1.438
						c-0.1-0.458-0.225-0.894-0.376-1.309c-0.151-0.415-0.327-0.809-0.529-1.182c-0.126-0.232-0.258-0.458-0.398-0.675
						c-0.14-0.218-0.286-0.428-0.44-0.632c-0.153-0.203-0.314-0.399-0.481-0.588C84.206,25.404,84.032,25.222,83.851,25.047z"/>
				</defs>
				<clipPath id="SVGID_4_">
					<use xlink:href="#SVGID_3_"  style="overflow:visible;"/>
				</clipPath>
				<g class="st16">
					<path class="st10" d="M83.851,25.047l15.048,14.5c0.065,0.063,0.13,0.127,0.193,0.191c0.063,0.065,0.126,0.13,0.188,0.197
						c0.062,0.067,0.122,0.134,0.182,0.203c0.06,0.068,0.119,0.138,0.177,0.208L84.604,25.863c-0.059-0.072-0.119-0.143-0.18-0.213
						c-0.061-0.07-0.123-0.139-0.186-0.207c-0.063-0.068-0.127-0.135-0.191-0.201C83.983,25.177,83.917,25.111,83.851,25.047"/>
					<path class="st11" d="M84.604,25.863l15.034,14.483c0.096,0.116,0.189,0.235,0.28,0.356c0.091,0.121,0.179,0.245,0.265,0.371
						c0.086,0.126,0.169,0.255,0.25,0.387c0.081,0.132,0.159,0.266,0.235,0.402L85.652,27.414c-0.077-0.14-0.157-0.277-0.239-0.412
						c-0.082-0.135-0.167-0.266-0.254-0.396c-0.087-0.129-0.177-0.256-0.269-0.38C84.797,26.103,84.702,25.982,84.604,25.863"/>
					<path class="st12" d="M85.652,27.414l15.016,14.449c0.003,0.006,0.007,0.012,0.01,0.018c0.003,0.006,0.007,0.012,0.01,0.018
						c0.003,0.006,0.007,0.012,0.01,0.018s0.007,0.012,0.01,0.018c0.056,0.102,0.109,0.205,0.161,0.31
						c0.052,0.105,0.102,0.212,0.15,0.32c0.048,0.108,0.094,0.218,0.138,0.329c0.044,0.111,0.086,0.224,0.126,0.339L86.274,28.818
						c-0.04-0.117-0.083-0.233-0.127-0.347c-0.044-0.114-0.091-0.227-0.139-0.337c-0.048-0.111-0.099-0.22-0.151-0.328
						c-0.052-0.108-0.107-0.213-0.163-0.318c-0.003-0.006-0.007-0.012-0.01-0.019c-0.003-0.006-0.007-0.012-0.01-0.018
						c-0.003-0.006-0.007-0.012-0.01-0.018C85.658,27.426,85.655,27.42,85.652,27.414"/>
					<path class="st13" d="M86.274,28.818l15.009,14.415c0.047,0.135,0.092,0.272,0.134,0.411c0.042,0.139,0.081,0.28,0.118,0.424
						c0.037,0.144,0.07,0.289,0.102,0.437c0.031,0.148,0.06,0.298,0.085,0.451L86.712,30.585c-0.025-0.157-0.054-0.311-0.085-0.463
						c-0.031-0.152-0.065-0.301-0.101-0.449c-0.037-0.147-0.076-0.292-0.118-0.435C86.366,29.096,86.321,28.956,86.274,28.818"/>
					<path class="st14" d="M86.712,30.585l15.009,14.371c0.031,0.182,0.058,0.367,0.081,0.555c0.023,0.188,0.042,0.38,0.058,0.574
						c0.015,0.195,0.027,0.393,0.035,0.594c0.008,0.201,0.012,0.406,0.012,0.613L86.887,32.985c0.001-0.213-0.002-0.423-0.008-0.63
						c-0.007-0.207-0.017-0.41-0.032-0.61c-0.015-0.2-0.033-0.397-0.056-0.59C86.769,30.962,86.742,30.772,86.712,30.585"/>
				</g>
			</g>
			<g>
				<polygon class="st1" points="86.887,32.985 101.906,47.293 93.09,48.19 77.827,33.962 				"/>
			</g>
			<g class="st0">
				<defs>
					<path id="SVGID_5_" class="st0" d="M74.085,68.295c-0.463-0.395-1.081-0.921-1.544-1.316c-0.233-0.198-0.543-0.463-0.776-0.661
						c-0.468-0.399-1.092-0.93-1.56-1.329c-0.471-0.401-1.099-0.936-1.57-1.338c-0.237-0.202-0.552-0.47-0.789-0.672
						c-0.476-0.405-1.11-0.946-1.586-1.351c-0.479-0.408-1.117-0.952-1.596-1.36c-0.241-0.205-0.561-0.478-0.802-0.683
						c-0.484-0.412-1.128-0.961-1.612-1.374c-0.487-0.415-1.136-0.968-1.623-1.383c-0.245-0.208-0.571-0.486-0.816-0.695
						c-0.492-0.419-1.148-0.978-1.639-1.397c0.298,0.253,0.609,0.492,0.935,0.715c0.326,0.223,0.666,0.431,1.02,0.623
						c0.354,0.193,0.722,0.37,1.105,0.533c0.383,0.162,0.779,0.31,1.19,0.442c0.508,0.164,1.032,0.299,1.57,0.406
						c0.539,0.107,1.092,0.186,1.661,0.237c0.569,0.051,1.153,0.074,1.752,0.068c0.599-0.006,1.213-0.039,1.842-0.102
						c1.119-0.111,2.193-0.291,3.224-0.542c1.032-0.251,2.019-0.572,2.961-0.964c0.943-0.392,1.841-0.853,2.695-1.385
						c0.853-0.532,1.661-1.134,2.424-1.806c0.763-0.672,1.458-1.405,2.087-2.199c0.629-0.794,1.191-1.648,1.687-2.563
						c0.495-0.914,0.924-1.889,1.285-2.923c0.361-1.034,0.656-2.127,0.884-3.279l15.088,14.065c-0.215,1.12-0.495,2.182-0.84,3.185
						c-0.345,1.004-0.756,1.95-1.232,2.837c-0.476,0.887-1.018,1.715-1.625,2.484c-0.607,0.769-1.28,1.478-2.018,2.128
						c-0.738,0.649-1.521,1.231-2.348,1.743c-0.827,0.513-1.699,0.957-2.614,1.332c-0.915,0.375-1.874,0.682-2.877,0.921
						c-1.002,0.238-2.048,0.408-3.136,0.509c-0.612,0.057-1.21,0.086-1.793,0.088c-0.583,0.002-1.152-0.023-1.706-0.076
						c-0.554-0.053-1.094-0.133-1.619-0.24c-0.525-0.107-1.036-0.242-1.532-0.404c-0.401-0.131-0.788-0.277-1.162-0.437
						c-0.374-0.16-0.733-0.335-1.08-0.525c-0.346-0.189-0.679-0.394-0.997-0.613C74.681,68.776,74.376,68.543,74.085,68.295z"/>
				</defs>
				<clipPath id="SVGID_6_">
					<use xlink:href="#SVGID_5_"  style="overflow:visible;"/>
				</clipPath>
				<g class="st17">
					<path class="st15" d="M86.494,41.998l15.088,14.065c-0.175,0.913-0.393,1.788-0.655,2.624
						c-0.262,0.836-0.567,1.634-0.916,2.392c-0.349,0.759-0.742,1.478-1.178,2.159c-0.436,0.68-0.916,1.322-1.439,1.923
						L82.129,51.374c0.542-0.621,1.039-1.283,1.491-1.985c0.453-0.702,0.861-1.444,1.224-2.226c0.364-0.782,0.683-1.603,0.958-2.464
						C86.077,43.837,86.308,42.937,86.494,41.998"/>
					<path class="st14" d="M82.129,51.374L97.393,65.16c-0.118,0.136-0.239,0.27-0.362,0.402c-0.123,0.132-0.248,0.262-0.375,0.39
						c-0.127,0.128-0.257,0.254-0.389,0.378c-0.132,0.124-0.266,0.246-0.402,0.366c-0.029,0.025-0.057,0.05-0.086,0.075
						c-0.029,0.025-0.057,0.05-0.086,0.074c-0.029,0.025-0.058,0.049-0.087,0.074c-0.029,0.024-0.058,0.049-0.087,0.073
						L80.193,53.269c0.03-0.025,0.06-0.05,0.09-0.076c0.03-0.025,0.06-0.051,0.089-0.076c0.03-0.026,0.059-0.051,0.089-0.077
						c0.03-0.026,0.059-0.052,0.089-0.078c0.141-0.124,0.279-0.25,0.415-0.378c0.136-0.128,0.27-0.258,0.402-0.391
						c0.132-0.132,0.261-0.267,0.388-0.403C81.882,51.653,82.007,51.514,82.129,51.374"/>
					<path class="st13" d="M80.193,53.269L95.52,66.993c-0.153,0.128-0.308,0.253-0.465,0.375c-0.157,0.122-0.315,0.242-0.476,0.358
						s-0.323,0.23-0.487,0.341c-0.164,0.111-0.33,0.219-0.498,0.324L78.206,54.718c0.173-0.109,0.344-0.221,0.514-0.336
						c0.169-0.115,0.337-0.233,0.502-0.354c0.166-0.121,0.329-0.244,0.491-0.371C79.875,53.53,80.035,53.401,80.193,53.269"/>
					<path class="st12" d="M78.206,54.718l15.389,13.674c-0.166,0.104-0.335,0.206-0.505,0.305c-0.17,0.099-0.342,0.195-0.515,0.288
						c-0.174,0.093-0.349,0.184-0.526,0.271c-0.177,0.088-0.356,0.172-0.537,0.254L76.059,55.88
						c0.186-0.085,0.371-0.174,0.553-0.265c0.183-0.091,0.363-0.185,0.542-0.282c0.179-0.097,0.356-0.197,0.531-0.299
						C77.861,54.931,78.035,54.826,78.206,54.718"/>
					<path class="st11" d="M76.059,55.88l15.453,13.63c-0.207,0.094-0.415,0.184-0.627,0.27c-0.211,0.086-0.425,0.169-0.641,0.248
						c-0.216,0.079-0.434,0.155-0.655,0.226c-0.221,0.072-0.443,0.14-0.669,0.204l-15.53-13.588
						c0.232-0.068,0.461-0.139,0.688-0.214c0.227-0.075,0.452-0.154,0.674-0.237c0.222-0.083,0.442-0.169,0.66-0.259
						C75.631,56.071,75.846,55.977,76.059,55.88"/>
					<path class="st10" d="M73.391,56.871l15.53,13.588c-0.298,0.085-0.6,0.164-0.907,0.237c-0.306,0.073-0.617,0.139-0.931,0.199
						c-0.314,0.06-0.633,0.113-0.955,0.16c-0.322,0.047-0.648,0.088-0.979,0.122L69.513,57.631c0.339-0.037,0.675-0.081,1.006-0.131
						c0.331-0.05,0.659-0.107,0.982-0.17c0.323-0.063,0.642-0.133,0.957-0.21C72.773,57.043,73.084,56.96,73.391,56.871"/>
					<path class="st9" d="M69.513,57.631L85.15,71.176c-0.022,0.002-0.043,0.004-0.065,0.007c-0.022,0.002-0.043,0.004-0.065,0.006
						c-0.022,0.002-0.043,0.004-0.065,0.006s-0.043,0.004-0.065,0.006c-0.44,0.041-0.873,0.068-1.298,0.08
						c-0.425,0.013-0.843,0.011-1.253-0.005c-0.41-0.016-0.813-0.046-1.208-0.09c-0.395-0.044-0.783-0.102-1.163-0.175
						L64.194,57.495c0.39,0.072,0.787,0.13,1.193,0.172c0.405,0.043,0.819,0.071,1.24,0.085c0.421,0.014,0.85,0.013,1.286-0.003
						c0.437-0.015,0.881-0.046,1.333-0.09c0.022-0.002,0.045-0.004,0.067-0.007c0.022-0.002,0.045-0.005,0.067-0.007
						c0.022-0.002,0.045-0.005,0.067-0.007C69.469,57.636,69.491,57.634,69.513,57.631"/>
					<path class="st8" d="M64.194,57.495l15.775,13.518c-0.149-0.028-0.296-0.059-0.443-0.091c-0.146-0.033-0.292-0.067-0.436-0.104
						c-0.144-0.037-0.287-0.076-0.429-0.117c-0.142-0.041-0.282-0.085-0.422-0.13c-0.401-0.131-0.788-0.277-1.162-0.437
						c-0.374-0.16-0.733-0.335-1.08-0.525c-0.346-0.189-0.679-0.394-0.997-0.613c-0.319-0.219-0.624-0.452-0.915-0.701
						L58.172,54.737c0.297,0.253,0.609,0.492,0.935,0.715c0.326,0.223,0.666,0.431,1.02,0.623c0.354,0.193,0.722,0.37,1.105,0.533
						c0.383,0.162,0.779,0.31,1.19,0.442c0.143,0.046,0.287,0.09,0.432,0.131c0.145,0.042,0.292,0.081,0.44,0.118
						c0.148,0.037,0.297,0.072,0.447,0.105C63.89,57.436,64.042,57.466,64.194,57.495"/>
				</g>
			</g>
			<g>
				<path class="st3" d="M72.005,21.95c0.492-0.056,0.979-0.094,1.46-0.117c0.482-0.022,0.958-0.028,1.428-0.017
					c0.471,0.011,0.936,0.039,1.396,0.084c0.46,0.045,0.915,0.106,1.364,0.184c0.449,0.078,0.885,0.174,1.308,0.289
					c0.423,0.115,0.832,0.248,1.228,0.399c0.396,0.151,0.78,0.321,1.15,0.51c0.371,0.188,0.728,0.396,1.073,0.621
					c0.345,0.226,0.672,0.47,0.981,0.731c0.309,0.262,0.6,0.542,0.873,0.84c0.273,0.298,0.529,0.615,0.766,0.951
					c0.238,0.336,0.457,0.69,0.659,1.063c0.202,0.373,0.378,0.767,0.529,1.182c0.151,0.415,0.276,0.851,0.376,1.309
					c0.1,0.458,0.174,0.937,0.222,1.438c0.048,0.501,0.071,1.024,0.068,1.568l-9.06,0.977c-0.085-0.955-0.282-1.777-0.592-2.465
					c-0.309-0.687-0.73-1.242-1.263-1.663c-0.532-0.421-1.176-0.71-1.932-0.866c-0.755-0.156-1.621-0.18-2.598-0.073
					c-0.365,0.04-0.716,0.1-1.054,0.178c-0.338,0.079-0.663,0.177-0.975,0.294c-0.312,0.117-0.61,0.254-0.896,0.411
					c-0.286,0.156-0.558,0.332-0.818,0.528c-0.259,0.196-0.508,0.402-0.746,0.619c-0.238,0.217-0.466,0.444-0.682,0.683
					c-0.217,0.238-0.423,0.488-0.619,0.748c-0.196,0.261-0.381,0.532-0.555,0.815c-0.174,0.283-0.338,0.572-0.491,0.866
					c-0.153,0.294-0.296,0.594-0.428,0.899c-0.132,0.305-0.253,0.616-0.363,0.932c-0.11,0.316-0.209,0.637-0.298,0.964
					c-0.088,0.327-0.168,0.653-0.241,0.977c-0.072,0.324-0.136,0.648-0.192,0.97c-0.056,0.322-0.104,0.643-0.144,0.962
					c-0.04,0.319-0.072,0.638-0.096,0.955c-0.023,0.305-0.038,0.61-0.045,0.916c-0.007,0.306-0.006,0.613,0.003,0.921
					c0.009,0.308,0.026,0.617,0.05,0.926c0.025,0.31,0.057,0.62,0.098,0.931c0.041,0.311,0.092,0.614,0.154,0.908
					c0.062,0.294,0.135,0.579,0.218,0.856c0.083,0.277,0.177,0.545,0.282,0.805c0.105,0.26,0.22,0.511,0.346,0.753
					c0.126,0.242,0.266,0.472,0.419,0.689c0.153,0.217,0.321,0.422,0.501,0.613c0.181,0.192,0.376,0.37,0.584,0.536
					c0.209,0.166,0.432,0.319,0.668,0.458c0.237,0.14,0.489,0.258,0.755,0.353c0.267,0.096,0.548,0.17,0.845,0.222
					c0.297,0.052,0.608,0.082,0.935,0.09c0.327,0.008,0.669-0.006,1.026-0.043c0.553-0.056,1.076-0.148,1.571-0.277
					c0.495-0.128,0.961-0.293,1.398-0.494c0.437-0.201,0.845-0.438,1.224-0.71c0.379-0.273,0.73-0.582,1.051-0.927
					c0.321-0.345,0.617-0.714,0.886-1.107c0.269-0.393,0.512-0.81,0.729-1.251c0.217-0.441,0.407-0.906,0.571-1.394
					c0.164-0.488,0.302-1,0.414-1.536l8.963-0.935c-0.228,1.152-0.523,2.245-0.884,3.279c-0.362,1.034-0.79,2.009-1.285,2.923
					c-0.495,0.915-1.058,1.769-1.687,2.563c-0.629,0.794-1.325,1.527-2.087,2.199c-0.763,0.672-1.571,1.274-2.424,1.806
					c-0.853,0.532-1.751,0.994-2.695,1.385c-0.943,0.391-1.93,0.713-2.961,0.964c-1.031,0.251-2.106,0.432-3.224,0.542
					c-0.629,0.062-1.243,0.096-1.842,0.102c-0.599,0.006-1.183-0.017-1.752-0.068c-0.569-0.051-1.122-0.13-1.661-0.237
					c-0.538-0.107-1.062-0.243-1.57-0.406c-0.508-0.163-0.994-0.35-1.459-0.56c-0.465-0.21-0.908-0.442-1.329-0.699
					c-0.421-0.256-0.821-0.535-1.199-0.838c-0.378-0.302-0.734-0.628-1.069-0.977c-0.335-0.349-0.648-0.718-0.94-1.107
					c-0.292-0.389-0.562-0.797-0.811-1.226c-0.249-0.429-0.475-0.878-0.68-1.347c-0.205-0.469-0.388-0.959-0.549-1.47
					c-0.161-0.51-0.295-1.036-0.404-1.576c-0.108-0.54-0.19-1.095-0.246-1.666c-0.056-0.57-0.085-1.155-0.089-1.755
					c-0.003-0.6,0.02-1.215,0.07-1.845c0.051-0.652,0.125-1.295,0.221-1.928c0.096-0.633,0.215-1.256,0.355-1.871
					c0.141-0.614,0.304-1.219,0.489-1.815c0.185-0.596,0.392-1.182,0.621-1.76c0.229-0.578,0.479-1.138,0.749-1.682
					c0.27-0.544,0.561-1.07,0.873-1.581c0.311-0.51,0.643-1.003,0.995-1.48c0.352-0.477,0.724-0.937,1.116-1.381
					c0.392-0.444,0.802-0.868,1.232-1.272c0.429-0.404,0.877-0.788,1.343-1.152c0.466-0.364,0.95-0.709,1.453-1.033
					c0.502-0.324,1.023-0.629,1.562-0.913c0.539-0.285,1.094-0.543,1.667-0.776c0.573-0.233,1.163-0.439,1.769-0.62
					c0.607-0.181,1.231-0.335,1.872-0.463C70.672,22.129,71.33,22.027,72.005,21.95z"/>
			</g>
		</g>
		<g class="st0">
			<g>
				<polygon class="st18" points="104.011,6.518 118.412,21.631 117.13,46.001 102.535,31.559 				"/>
			</g>
			<g>
				<polygon class="st19" points="126.331,16.737 140.194,31.723 126.945,45.261 112.626,30.735 				"/>
			</g>
			<g>
				<polygon class="st20" points="105.802,37.799 120.347,52.093 116.611,55.874 101.937,41.709 				"/>
			</g>
			<g>
				<polygon class="st18" points="101.937,41.709 116.611,55.874 116.001,67.462 101.235,53.626 				"/>
			</g>
			<g>
				<polygon class="st5" points="101.235,53.626 116.001,67.462 106.812,68.32 91.785,54.563 				"/>
			</g>
			<g>
				<polygon class="st5" points="126.12,51.156 140.191,65.204 128.859,66.262 114.461,52.313 				"/>
			</g>
			<g>
				<polygon class="st21" points="112.626,30.735 126.945,45.261 140.191,65.204 126.12,51.156 				"/>
			</g>
			<g>
				<polygon class="st3" points="104.011,6.518 102.535,31.559 115.107,18 126.331,16.737 112.626,30.735 126.12,51.156 
					114.461,52.313 105.802,37.799 101.937,41.709 101.235,53.626 91.785,54.563 94.732,7.608 				"/>
			</g>
		</g>
		<g class="st0">
			<g class="st0">
				<defs>
					<path id="SVGID_7_" class="st0" d="M152.318,22.137l13.176,15.002c-0.019-0.022-0.039-0.044-0.058-0.065
						c-0.019-0.021-0.039-0.043-0.059-0.064c-0.02-0.021-0.04-0.042-0.06-0.063c-0.02-0.021-0.04-0.041-0.06-0.061
						c-0.273-0.274-0.585-0.506-0.934-0.697c-0.349-0.191-0.737-0.339-1.162-0.447c-0.425-0.107-0.887-0.173-1.388-0.196
						c-0.5-0.024-1.037-0.006-1.612,0.054c-0.378,0.039-0.739,0.092-1.085,0.159c-0.345,0.067-0.675,0.148-0.989,0.243
						c-0.314,0.095-0.612,0.203-0.896,0.325c-0.283,0.122-0.551,0.258-0.804,0.407c-0.253,0.149-0.494,0.305-0.722,0.467
						c-0.229,0.162-0.445,0.33-0.649,0.505c-0.204,0.175-0.396,0.355-0.576,0.543c-0.18,0.187-0.348,0.381-0.504,0.581
						c-0.156,0.2-0.301,0.401-0.435,0.604c-0.134,0.203-0.257,0.407-0.37,0.612c-0.112,0.206-0.214,0.413-0.304,0.621
						c-0.09,0.208-0.169,0.418-0.237,0.63c-0.07,0.211-0.133,0.417-0.189,0.617c-0.056,0.2-0.106,0.394-0.148,0.582
						c-0.043,0.188-0.079,0.37-0.108,0.546c-0.03,0.176-0.053,0.346-0.069,0.51l-13.599-14.735c0.018-0.169,0.043-0.343,0.074-0.525
						c0.031-0.181,0.07-0.369,0.115-0.562c0.045-0.194,0.097-0.393,0.156-0.599c0.059-0.206,0.125-0.418,0.198-0.636
						c0.071-0.218,0.154-0.434,0.247-0.649c0.094-0.215,0.199-0.428,0.316-0.64c0.117-0.212,0.245-0.423,0.384-0.632
						c0.139-0.209,0.29-0.417,0.451-0.624c0.161-0.206,0.335-0.407,0.522-0.6s0.385-0.381,0.596-0.562
						c0.211-0.181,0.435-0.355,0.671-0.523c0.236-0.168,0.485-0.33,0.746-0.485c0.261-0.155,0.537-0.297,0.829-0.424
						c0.292-0.127,0.6-0.241,0.923-0.34c0.324-0.099,0.663-0.185,1.019-0.256c0.356-0.071,0.728-0.128,1.117-0.171
						c0.592-0.065,1.145-0.087,1.659-0.066c0.514,0.021,0.99,0.085,1.426,0.193c0.437,0.107,0.834,0.258,1.192,0.452
						c0.358,0.194,0.678,0.43,0.957,0.71c0.021,0.021,0.041,0.042,0.062,0.063c0.02,0.021,0.041,0.042,0.061,0.064
						s0.04,0.043,0.06,0.065C152.279,22.093,152.298,22.115,152.318,22.137z"/>
				</defs>
				<clipPath id="SVGID_8_">
					<use xlink:href="#SVGID_7_"  style="overflow:visible;"/>
				</clipPath>
				<g class="st22">
					<path class="st8" d="M152.318,22.137l13.176,15.002c-0.019-0.022-0.039-0.044-0.058-0.065
						c-0.019-0.021-0.039-0.043-0.059-0.064c-0.02-0.021-0.04-0.042-0.06-0.063c-0.02-0.021-0.04-0.041-0.06-0.061
						c-0.163-0.163-0.34-0.312-0.53-0.446c-0.19-0.134-0.394-0.253-0.611-0.357c-0.217-0.104-0.448-0.193-0.692-0.268
						c-0.244-0.074-0.502-0.134-0.773-0.179l-13.249-15.026c0.279,0.044,0.543,0.104,0.794,0.179
						c0.251,0.075,0.488,0.165,0.71,0.271c0.223,0.106,0.432,0.227,0.627,0.363c0.195,0.136,0.376,0.288,0.543,0.455
						c0.021,0.021,0.041,0.042,0.062,0.063c0.02,0.021,0.041,0.042,0.061,0.064s0.04,0.043,0.06,0.065
						C152.279,22.093,152.298,22.115,152.318,22.137"/>
					<path class="st9" d="M149.402,20.612l13.249,15.026c-0.183-0.03-0.372-0.054-0.568-0.07c-0.195-0.017-0.397-0.027-0.604-0.03
						c-0.207-0.003-0.421,0.001-0.641,0.011c-0.22,0.01-0.445,0.028-0.677,0.052c-0.012,0.001-0.023,0.002-0.035,0.004
						c-0.012,0.001-0.023,0.003-0.035,0.004s-0.023,0.003-0.035,0.004s-0.023,0.003-0.035,0.004l-13.325-15.009
						c0.012-0.001,0.024-0.003,0.036-0.004c0.012-0.001,0.024-0.003,0.036-0.004c0.012-0.001,0.024-0.003,0.036-0.004
						c0.012-0.001,0.024-0.003,0.036-0.004c0.239-0.026,0.471-0.046,0.697-0.058c0.226-0.012,0.446-0.017,0.659-0.016
						c0.213,0.002,0.421,0.011,0.621,0.026C149.019,20.559,149.214,20.582,149.402,20.612"/>
					<path class="st10" d="M146.697,20.607l13.325,15.009c-0.167,0.019-0.33,0.041-0.49,0.065c-0.16,0.025-0.317,0.052-0.471,0.082
						c-0.154,0.03-0.305,0.063-0.452,0.099c-0.148,0.036-0.292,0.074-0.434,0.115l-13.38-14.987
						c0.146-0.043,0.295-0.084,0.447-0.121c0.152-0.038,0.307-0.072,0.466-0.104c0.159-0.032,0.32-0.061,0.485-0.087
						C146.357,20.651,146.525,20.628,146.697,20.607"/>
					<path class="st11" d="M144.794,20.991l13.38,14.987c-0.099,0.029-0.196,0.059-0.292,0.09c-0.096,0.031-0.19,0.064-0.283,0.098
						s-0.184,0.07-0.274,0.106c-0.09,0.037-0.178,0.075-0.265,0.114l-13.414-14.968c0.09-0.041,0.181-0.081,0.274-0.119
						c0.093-0.038,0.187-0.076,0.283-0.111c0.096-0.036,0.193-0.07,0.292-0.103C144.592,21.053,144.692,21.021,144.794,20.991"/>
					<path class="st12" d="M143.645,21.419l13.414,14.968c-0.059,0.027-0.116,0.054-0.174,0.082
						c-0.057,0.028-0.114,0.056-0.17,0.085c-0.056,0.029-0.111,0.059-0.166,0.089c-0.055,0.03-0.108,0.061-0.162,0.092
						c-0.02,0.012-0.04,0.024-0.06,0.036c-0.02,0.012-0.04,0.024-0.06,0.036s-0.04,0.024-0.059,0.036
						c-0.02,0.012-0.039,0.024-0.059,0.037l-13.443-14.948c0.02-0.013,0.041-0.025,0.061-0.038c0.02-0.013,0.041-0.025,0.061-0.038
						c0.021-0.013,0.041-0.025,0.062-0.038c0.021-0.012,0.041-0.025,0.062-0.037c0.055-0.033,0.111-0.065,0.167-0.096
						s0.113-0.062,0.171-0.092c0.058-0.03,0.116-0.06,0.175-0.089S143.584,21.447,143.645,21.419"/>
					<path class="st13" d="M142.706,21.933l13.443,14.948c-0.095,0.06-0.189,0.12-0.28,0.182c-0.092,0.061-0.181,0.124-0.269,0.187
						c-0.088,0.063-0.174,0.128-0.258,0.193c-0.084,0.065-0.167,0.132-0.247,0.199l-13.478-14.92
						c0.083-0.07,0.168-0.138,0.255-0.206c0.087-0.068,0.176-0.134,0.267-0.2s0.183-0.13,0.278-0.194
						C142.512,22.057,142.608,21.994,142.706,21.933"/>
					<path class="st14" d="M141.617,22.721l13.478,14.92c-0.084,0.07-0.166,0.141-0.246,0.214c-0.08,0.072-0.158,0.146-0.234,0.22
						c-0.076,0.074-0.15,0.15-0.223,0.226c-0.072,0.076-0.142,0.154-0.211,0.232l-13.509-14.889c0.071-0.081,0.143-0.161,0.218-0.24
						c0.075-0.079,0.151-0.157,0.23-0.234s0.16-0.153,0.242-0.228C141.446,22.868,141.53,22.794,141.617,22.721"/>
					<path class="st15" d="M140.672,23.644l13.509,14.889c-0.021,0.024-0.042,0.049-0.063,0.073
						c-0.021,0.025-0.041,0.049-0.062,0.074s-0.041,0.05-0.061,0.075c-0.02,0.025-0.04,0.05-0.059,0.075
						c-0.156,0.2-0.301,0.401-0.435,0.604c-0.134,0.203-0.257,0.407-0.37,0.612c-0.112,0.206-0.214,0.413-0.304,0.621
						c-0.09,0.208-0.169,0.418-0.237,0.63c-0.07,0.211-0.133,0.417-0.189,0.617c-0.056,0.2-0.106,0.394-0.148,0.582
						c-0.043,0.188-0.079,0.37-0.108,0.546c-0.03,0.176-0.053,0.346-0.069,0.51l-13.599-14.735c0.018-0.169,0.043-0.343,0.074-0.525
						c0.031-0.181,0.07-0.369,0.115-0.562c0.045-0.194,0.097-0.393,0.156-0.599c0.059-0.206,0.125-0.418,0.198-0.636
						c0.071-0.218,0.154-0.434,0.247-0.649c0.094-0.215,0.199-0.428,0.316-0.64c0.117-0.212,0.245-0.423,0.384-0.632
						c0.139-0.209,0.29-0.417,0.451-0.624c0.02-0.026,0.041-0.052,0.062-0.078s0.042-0.051,0.063-0.077s0.042-0.051,0.064-0.076
						C140.628,23.695,140.65,23.67,140.672,23.644"/>
				</g>
			</g>
			<g class="st0">
				<defs>
					<path id="SVGID_9_" class="st0" d="M153.646,55.485L140.02,41.076c-0.303-0.32-0.567-0.69-0.794-1.11
						c-0.226-0.419-0.415-0.889-0.565-1.407c-0.15-0.518-0.263-1.086-0.338-1.704c-0.075-0.617-0.112-1.283-0.112-1.998
						l13.641,14.569c0.004,0.696,0.044,1.344,0.121,1.944c0.076,0.601,0.189,1.154,0.339,1.659c0.149,0.505,0.335,0.963,0.558,1.372
						C153.091,54.811,153.35,55.172,153.646,55.485z"/>
				</defs>
				<clipPath id="SVGID_10_">
					<use xlink:href="#SVGID_9_"  style="overflow:visible;"/>
				</clipPath>
				<g class="st23">
					<path class="st14" d="M138.211,34.858l13.641,14.569c0.001,0.25,0.008,0.494,0.018,0.732c0.011,0.238,0.026,0.47,0.046,0.695
						c0.02,0.226,0.045,0.445,0.075,0.658c0.03,0.213,0.064,0.42,0.103,0.621l-13.65-14.494c-0.039-0.206-0.073-0.419-0.102-0.638
						c-0.029-0.219-0.053-0.445-0.073-0.676c-0.019-0.232-0.034-0.47-0.044-0.714C138.216,35.366,138.211,35.115,138.211,34.858"/>
					<path class="st13" d="M138.444,37.639l13.65,14.494c0.026,0.132,0.053,0.261,0.083,0.388c0.03,0.127,0.061,0.251,0.095,0.372
						c0.034,0.121,0.07,0.24,0.107,0.356c0.038,0.116,0.078,0.229,0.12,0.34l-13.648-14.455c-0.042-0.114-0.083-0.23-0.121-0.349
						c-0.038-0.119-0.074-0.241-0.108-0.366c-0.034-0.125-0.066-0.252-0.096-0.382C138.497,37.908,138.469,37.775,138.444,37.639"/>
					<path class="st12" d="M138.852,39.135l13.648,14.455c0.033,0.088,0.068,0.174,0.104,0.259c0.036,0.085,0.073,0.167,0.111,0.249
						c0.038,0.081,0.078,0.161,0.119,0.238c0.041,0.078,0.083,0.154,0.127,0.228l-13.64-14.43c-0.044-0.076-0.087-0.154-0.129-0.234
						c-0.042-0.08-0.082-0.161-0.121-0.244c-0.039-0.083-0.077-0.168-0.113-0.255C138.92,39.314,138.885,39.225,138.852,39.135"/>
					<path class="st11" d="M139.32,40.134l13.64,14.43c0.04,0.068,0.081,0.135,0.123,0.2c0.042,0.065,0.085,0.129,0.13,0.192
						c0.044,0.062,0.09,0.124,0.136,0.183c0.046,0.06,0.094,0.118,0.143,0.175l-13.629-14.413c-0.05-0.058-0.098-0.118-0.146-0.179
						c-0.047-0.061-0.094-0.124-0.139-0.188c-0.045-0.064-0.089-0.129-0.132-0.196C139.403,40.272,139.361,40.203,139.32,40.134"/>
					<path class="st10" d="M139.863,40.901l13.629,14.413c0.013,0.015,0.025,0.029,0.038,0.044c0.013,0.014,0.025,0.029,0.038,0.043
						c0.013,0.014,0.026,0.028,0.039,0.043c0.013,0.014,0.026,0.028,0.039,0.042L140.02,41.076c-0.013-0.014-0.027-0.029-0.04-0.043
						c-0.013-0.014-0.026-0.029-0.04-0.044s-0.026-0.029-0.039-0.044S139.876,40.916,139.863,40.901"/>
				</g>
			</g>
			<g class="st0">
				<defs>
					<path id="SVGID_11_" class="st0" d="M160.266,17.83L173.196,33c0.026,0.03,0.052,0.061,0.077,0.092
						c0.026,0.031,0.051,0.061,0.076,0.092c0.025,0.031,0.051,0.062,0.076,0.093c0.025,0.031,0.05,0.063,0.075,0.094
						c0.338,0.43,0.652,0.879,0.94,1.348c0.289,0.469,0.553,0.957,0.792,1.465c0.239,0.508,0.454,1.035,0.644,1.581
						c0.19,0.546,0.356,1.112,0.496,1.696l-12.874-15.008c-0.142-0.6-0.309-1.18-0.501-1.74c-0.192-0.56-0.41-1.101-0.654-1.621
						c-0.243-0.52-0.512-1.021-0.807-1.501c-0.294-0.48-0.614-0.94-0.96-1.379c-0.025-0.032-0.051-0.064-0.077-0.096
						c-0.026-0.032-0.051-0.064-0.077-0.095c-0.026-0.032-0.052-0.063-0.078-0.095S160.293,17.861,160.266,17.83z"/>
				</defs>
				<clipPath id="SVGID_12_">
					<use xlink:href="#SVGID_11_"  style="overflow:visible;"/>
				</clipPath>
				<g class="st24">
					<path class="st11" d="M160.266,17.83L173.196,33c0.026,0.03,0.052,0.061,0.077,0.092c0.026,0.031,0.051,0.061,0.076,0.092
						c0.025,0.031,0.051,0.062,0.076,0.093c0.025,0.031,0.05,0.063,0.075,0.094c0.088,0.112,0.175,0.226,0.26,0.34
						c0.085,0.115,0.168,0.231,0.25,0.349c0.082,0.118,0.161,0.236,0.24,0.357c0.078,0.12,0.155,0.242,0.229,0.365l-12.902-15.128
						c-0.076-0.126-0.154-0.25-0.234-0.373c-0.08-0.123-0.161-0.245-0.245-0.365c-0.083-0.12-0.168-0.239-0.255-0.357
						c-0.087-0.117-0.175-0.234-0.265-0.348c-0.025-0.032-0.051-0.064-0.077-0.096c-0.026-0.032-0.051-0.064-0.077-0.095
						c-0.026-0.032-0.052-0.063-0.078-0.095S160.293,17.861,160.266,17.83"/>
					<path class="st12" d="M161.576,19.653l12.902,15.128c0.111,0.182,0.218,0.367,0.322,0.555c0.104,0.188,0.203,0.379,0.299,0.573
						c0.096,0.194,0.189,0.391,0.277,0.59c0.089,0.2,0.174,0.402,0.255,0.608l-12.882-15.07c-0.083-0.211-0.169-0.418-0.259-0.623
						c-0.09-0.205-0.184-0.406-0.282-0.605c-0.098-0.199-0.199-0.394-0.305-0.587C161.799,20.029,161.689,19.84,161.576,19.653"/>
					<path class="st13" d="M162.75,22.037l12.882,15.07c0.074,0.187,0.145,0.376,0.213,0.567c0.068,0.191,0.133,0.385,0.194,0.581
						c0.062,0.196,0.12,0.395,0.176,0.595c0.056,0.201,0.108,0.404,0.158,0.609l-12.874-15.008c-0.05-0.211-0.103-0.419-0.159-0.626
						c-0.056-0.206-0.115-0.41-0.178-0.611c-0.062-0.201-0.128-0.4-0.197-0.596C162.897,22.422,162.825,22.229,162.75,22.037"/>
				</g>
			</g>
			<g>
				<polygon class="st1" points="163.932,32.156 176.834,46.955 151.852,49.426 138.211,34.858 				"/>
			</g>
			<g class="st0">
				<defs>
					<path id="SVGID_13_" class="st0" d="M163.499,24.451l12.874,15.008c0.139,0.585,0.253,1.179,0.342,1.784
						c0.089,0.605,0.153,1.22,0.192,1.844c0.039,0.625,0.052,1.26,0.04,1.904c-0.012,0.645-0.049,1.299-0.112,1.963l-12.902-14.799
						c0.068-0.683,0.111-1.357,0.126-2.02c0.016-0.663,0.006-1.315-0.031-1.958c-0.036-0.642-0.099-1.274-0.187-1.895
						C163.752,25.662,163.639,25.052,163.499,24.451z"/>
				</defs>
				<clipPath id="SVGID_14_">
					<use xlink:href="#SVGID_13_"  style="overflow:visible;"/>
				</clipPath>
				<g class="st25">
					<path class="st13" d="M163.499,24.451l12.874,15.008c0.011,0.047,0.022,0.094,0.033,0.141c0.011,0.047,0.022,0.094,0.032,0.142
						s0.021,0.095,0.031,0.142s0.02,0.095,0.03,0.142l-12.873-14.993c-0.01-0.049-0.02-0.098-0.03-0.146
						c-0.01-0.049-0.021-0.097-0.031-0.146c-0.011-0.049-0.021-0.097-0.032-0.145C163.521,24.548,163.51,24.5,163.499,24.451"/>
					<path class="st14" d="M163.626,25.034l12.873,14.993c0.071,0.344,0.134,0.691,0.189,1.041c0.055,0.351,0.101,0.704,0.138,1.062
						c0.038,0.357,0.067,0.718,0.087,1.082c0.021,0.364,0.033,0.732,0.036,1.102L164.065,29.44
						c-0.001-0.381-0.012-0.759-0.031-1.133c-0.019-0.374-0.047-0.745-0.084-1.112c-0.037-0.367-0.082-0.731-0.136-1.091
						C163.76,25.743,163.697,25.387,163.626,25.034"/>
					<path class="st15" d="M164.065,29.44l12.884,14.875c0.002,0.216,0.001,0.432-0.003,0.65c-0.004,0.218-0.01,0.437-0.02,0.657
						c-0.01,0.22-0.022,0.441-0.038,0.664c-0.015,0.222-0.034,0.446-0.055,0.67l-12.902-14.799c0.023-0.231,0.043-0.461,0.06-0.69
						c0.017-0.229,0.031-0.456,0.042-0.683c0.011-0.226,0.019-0.452,0.024-0.676C164.064,29.884,164.066,29.661,164.065,29.44"/>
				</g>
			</g>
			<g>
				<path class="st3" d="M163.499,24.451c0.14,0.6,0.254,1.211,0.342,1.832c0.088,0.621,0.151,1.253,0.187,1.895
					c0.036,0.642,0.047,1.295,0.031,1.958c-0.016,0.663-0.058,1.336-0.126,2.02l-25.721,2.702c0,0.77,0.043,1.484,0.131,2.14
					c0.087,0.657,0.218,1.256,0.393,1.798c0.175,0.542,0.393,1.027,0.656,1.454c0.263,0.427,0.57,0.797,0.921,1.108
					c0.349,0.312,0.742,0.576,1.177,0.793c0.435,0.217,0.913,0.387,1.433,0.508c0.52,0.122,1.083,0.196,1.688,0.222
					c0.605,0.026,1.253,0.004,1.943-0.066c0.494-0.05,0.972-0.129,1.435-0.236c0.463-0.108,0.91-0.244,1.342-0.409
					c0.431-0.165,0.847-0.359,1.246-0.582c0.399-0.223,0.782-0.475,1.148-0.756c0.366-0.281,0.698-0.561,0.996-0.842
					c0.297-0.28,0.561-0.561,0.789-0.841c0.229-0.28,0.423-0.56,0.584-0.84c0.16-0.28,0.287-0.56,0.379-0.84l8.687-0.898
					c-0.384,1.092-0.813,2.114-1.285,3.066c-0.473,0.953-0.989,1.835-1.55,2.646c-0.561,0.812-1.166,1.553-1.815,2.223
					c-0.649,0.67-1.342,1.269-2.079,1.797c-0.737,0.528-1.509,1.002-2.316,1.424c-0.807,0.421-1.649,0.789-2.526,1.104
					c-0.877,0.314-1.788,0.575-2.734,0.783c-0.945,0.207-1.925,0.361-2.939,0.462c-0.702,0.069-1.386,0.109-2.052,0.12
					c-0.665,0.011-1.312-0.008-1.939-0.057c-0.627-0.048-1.236-0.126-1.826-0.233c-0.589-0.107-1.16-0.243-1.711-0.409
					c-0.553-0.165-1.082-0.356-1.589-0.573c-0.506-0.216-0.989-0.458-1.448-0.725c-0.459-0.267-0.896-0.559-1.309-0.876
					c-0.413-0.317-0.804-0.66-1.172-1.028c-0.37-0.367-0.716-0.756-1.039-1.167c-0.322-0.41-0.621-0.843-0.897-1.296
					c-0.275-0.454-0.527-0.929-0.756-1.426c-0.228-0.497-0.433-1.016-0.615-1.557c-0.184-0.54-0.34-1.097-0.469-1.669
					c-0.129-0.572-0.231-1.161-0.306-1.765c-0.075-0.604-0.123-1.225-0.144-1.862c-0.021-0.637-0.016-1.29,0.017-1.959
					c0.031-0.646,0.089-1.284,0.172-1.913c0.084-0.629,0.194-1.25,0.33-1.862c0.136-0.612,0.298-1.216,0.486-1.811
					c0.188-0.595,0.402-1.182,0.642-1.761c0.24-0.578,0.501-1.14,0.784-1.685c0.283-0.545,0.588-1.073,0.915-1.585
					c0.327-0.512,0.675-1.007,1.045-1.487c0.37-0.48,0.762-0.943,1.176-1.391c0.412-0.448,0.842-0.876,1.291-1.285
					c0.449-0.409,0.916-0.798,1.401-1.168c0.486-0.37,0.99-0.721,1.512-1.052c0.522-0.332,1.063-0.644,1.622-0.938
					c0.557-0.293,1.128-0.559,1.714-0.798c0.586-0.239,1.185-0.451,1.799-0.635c0.614-0.185,1.242-0.342,1.885-0.472
					c0.643-0.13,1.299-0.233,1.97-0.309c0.75-0.085,1.475-0.131,2.174-0.14c0.7-0.009,1.374,0.021,2.023,0.088
					c0.65,0.067,1.275,0.173,1.874,0.316c0.6,0.144,1.176,0.325,1.727,0.545c0.549,0.22,1.073,0.468,1.572,0.743
					c0.499,0.275,0.973,0.578,1.421,0.908c0.448,0.33,0.871,0.687,1.268,1.072c0.397,0.385,0.769,0.797,1.114,1.236
					c0.346,0.439,0.666,0.899,0.96,1.379c0.295,0.48,0.563,0.981,0.807,1.501c0.243,0.521,0.461,1.061,0.654,1.621
					C163.19,23.272,163.357,23.852,163.499,24.451z M138.477,28.818l15.831-1.699c-0.091-0.593-0.207-1.148-0.346-1.663
					c-0.139-0.515-0.302-0.991-0.488-1.427c-0.186-0.436-0.396-0.834-0.629-1.192c-0.233-0.358-0.49-0.677-0.77-0.957
					c-0.28-0.28-0.599-0.516-0.957-0.71c-0.358-0.194-0.756-0.344-1.192-0.452c-0.436-0.107-0.912-0.172-1.426-0.193
					c-0.514-0.021-1.067,0.001-1.659,0.066c-0.389,0.043-0.761,0.1-1.117,0.171c-0.356,0.071-0.695,0.157-1.019,0.256
					c-0.324,0.099-0.631,0.213-0.923,0.34c-0.292,0.127-0.568,0.269-0.829,0.424c-0.261,0.155-0.509,0.317-0.746,0.485
					c-0.236,0.168-0.46,0.342-0.671,0.523c-0.211,0.181-0.41,0.368-0.596,0.562s-0.36,0.394-0.522,0.6
					c-0.161,0.206-0.312,0.414-0.451,0.624c-0.139,0.209-0.267,0.42-0.384,0.632c-0.117,0.212-0.222,0.426-0.316,0.64
					c-0.094,0.215-0.177,0.431-0.247,0.649c-0.073,0.218-0.139,0.43-0.198,0.636c-0.059,0.206-0.111,0.406-0.156,0.599
					c-0.045,0.194-0.083,0.381-0.115,0.562C138.52,28.474,138.495,28.649,138.477,28.818"/>
			</g>
			<g class="st0">
				<defs>
					<path id="SVGID_15_" class="st0" d="M146.58,60.374l-13.858-14.225c0.012,0.012,0.024,0.025,0.036,0.037
						s0.024,0.025,0.036,0.037s0.024,0.025,0.037,0.037c0.012,0.012,0.024,0.024,0.037,0.037c0.368,0.368,0.758,0.71,1.172,1.028
						c0.414,0.317,0.85,0.61,1.309,0.876c0.46,0.267,0.942,0.509,1.448,0.725c0.506,0.216,1.036,0.407,1.589,0.573
						c0.551,0.166,1.121,0.302,1.711,0.409c0.59,0.107,1.198,0.185,1.826,0.233c0.628,0.048,1.274,0.067,1.939,0.057
						c0.665-0.011,1.349-0.051,2.052-0.12c1.014-0.1,1.994-0.254,2.939-0.462c0.946-0.207,1.857-0.468,2.734-0.783
						c0.877-0.315,1.719-0.682,2.526-1.104c0.807-0.421,1.579-0.896,2.316-1.424c0.737-0.528,1.43-1.127,2.079-1.797
						c0.649-0.67,1.254-1.411,1.815-2.223c0.561-0.812,1.078-1.694,1.55-2.646c0.473-0.952,0.901-1.974,1.285-3.066l12.948,14.672
						c-0.368,1.059-0.778,2.05-1.232,2.973c-0.454,0.923-0.951,1.778-1.492,2.563c-0.541,0.786-1.124,1.503-1.751,2.15
						c-0.627,0.648-1.297,1.226-2.01,1.734c-0.713,0.509-1.461,0.965-2.243,1.37c-0.782,0.405-1.598,0.757-2.448,1.058
						c-0.85,0.3-1.734,0.549-2.652,0.745c-0.917,0.196-1.869,0.34-2.854,0.432c-0.682,0.063-1.346,0.098-1.993,0.105
						c-0.646,0.006-1.275-0.016-1.885-0.066c-0.61-0.051-1.202-0.13-1.776-0.237c-0.573-0.107-1.128-0.243-1.665-0.408
						c-0.538-0.164-1.054-0.353-1.547-0.566c-0.493-0.213-0.964-0.451-1.412-0.713c-0.448-0.262-0.874-0.549-1.278-0.86
						c-0.404-0.311-0.785-0.646-1.145-1.006c-0.012-0.012-0.024-0.024-0.036-0.036c-0.012-0.012-0.024-0.024-0.036-0.036
						c-0.012-0.012-0.024-0.024-0.036-0.036C146.603,60.398,146.592,60.386,146.58,60.374z"/>
				</defs>
				<clipPath id="SVGID_16_">
					<use xlink:href="#SVGID_15_"  style="overflow:visible;"/>
				</clipPath>
				<g class="st26">
					<path class="st15" d="M163.158,36.572l12.948,14.672c-0.246,0.709-0.512,1.388-0.796,2.036
						c-0.285,0.648-0.589,1.266-0.913,1.853c-0.324,0.587-0.667,1.143-1.029,1.668c-0.362,0.525-0.744,1.02-1.145,1.483
						l-13.102-14.445c0.416-0.479,0.811-0.99,1.187-1.533c0.376-0.543,0.732-1.117,1.069-1.723c0.336-0.606,0.653-1.243,0.95-1.912
						C162.624,38.003,162.901,37.303,163.158,36.572"/>
					<path class="st14" d="M159.121,43.839l13.102,14.445c-0.138,0.159-0.278,0.315-0.421,0.467c-0.143,0.152-0.287,0.3-0.434,0.445
						c-0.147,0.145-0.296,0.286-0.448,0.423c-0.152,0.137-0.306,0.271-0.462,0.401l-13.164-14.384
						c0.162-0.135,0.321-0.273,0.478-0.415c0.157-0.142,0.311-0.288,0.464-0.438c0.152-0.15,0.302-0.303,0.45-0.461
						C158.832,44.165,158.978,44.004,159.121,43.839"/>
					<path class="st13" d="M157.294,45.636l13.164,14.384c-0.068,0.057-0.137,0.112-0.205,0.168
						c-0.069,0.055-0.138,0.11-0.208,0.163s-0.14,0.107-0.211,0.159c-0.071,0.052-0.142,0.104-0.213,0.155
						c-0.08,0.057-0.161,0.114-0.242,0.17c-0.081,0.056-0.163,0.111-0.245,0.166s-0.164,0.109-0.247,0.162s-0.166,0.106-0.25,0.158
						l-13.225-14.335c0.086-0.054,0.173-0.109,0.258-0.164c0.086-0.055,0.171-0.111,0.255-0.168s0.169-0.114,0.253-0.172
						c0.084-0.058,0.167-0.117,0.25-0.176c0.074-0.053,0.147-0.107,0.22-0.161c0.073-0.054,0.146-0.109,0.218-0.165
						s0.144-0.112,0.215-0.169C157.153,45.752,157.223,45.694,157.294,45.636"/>
					<path class="st12" d="M155.412,46.985l13.225,14.335c-0.178,0.111-0.358,0.218-0.541,0.323
						c-0.182,0.105-0.366,0.206-0.552,0.305c-0.186,0.099-0.374,0.194-0.564,0.287c-0.19,0.093-0.382,0.182-0.576,0.269
						l-13.297-14.287c0.2-0.09,0.398-0.184,0.594-0.281c0.196-0.097,0.39-0.196,0.582-0.299c0.192-0.103,0.382-0.208,0.57-0.317
						C155.042,47.212,155.228,47.1,155.412,46.985"/>
					<path class="st11" d="M153.106,48.218l13.297,14.287c-0.219,0.098-0.441,0.192-0.665,0.283c-0.224,0.09-0.451,0.177-0.68,0.26
						c-0.229,0.083-0.461,0.162-0.695,0.237c-0.234,0.075-0.471,0.146-0.71,0.214l-13.383-14.242
						c0.247-0.071,0.491-0.146,0.732-0.225c0.242-0.079,0.481-0.161,0.717-0.248c0.237-0.087,0.47-0.177,0.702-0.272
						C152.651,48.418,152.88,48.32,153.106,48.218"/>
					<path class="st10" d="M150.268,49.257l13.383,14.242c-0.313,0.088-0.63,0.17-0.951,0.245c-0.321,0.075-0.647,0.144-0.976,0.206
						c-0.33,0.062-0.663,0.118-1.002,0.166c-0.338,0.049-0.68,0.091-1.027,0.127l-13.503-14.196
						c0.357-0.039,0.709-0.085,1.057-0.137c0.348-0.052,0.692-0.112,1.032-0.177c0.34-0.066,0.675-0.138,1.006-0.218
						C149.619,49.436,149.946,49.35,150.268,49.257"/>
					<path class="st9" d="M146.193,50.047l13.503,14.196c-0.023,0.002-0.045,0.005-0.068,0.007s-0.045,0.005-0.068,0.007
						c-0.023,0.002-0.045,0.004-0.068,0.007c-0.023,0.002-0.045,0.004-0.068,0.006c-0.5,0.046-0.99,0.078-1.471,0.093
						c-0.481,0.016-0.952,0.016-1.414,0.002c-0.461-0.015-0.913-0.045-1.355-0.09c-0.442-0.045-0.874-0.106-1.296-0.182
						l-13.671-14.165c0.434,0.076,0.878,0.135,1.333,0.179c0.455,0.044,0.919,0.072,1.394,0.085c0.475,0.012,0.96,0.009,1.455-0.01
						c0.495-0.019,1-0.054,1.515-0.105c0.023-0.002,0.047-0.005,0.07-0.007s0.047-0.005,0.07-0.007
						c0.023-0.002,0.047-0.005,0.07-0.007S146.17,50.05,146.193,50.047"/>
					<path class="st8" d="M140.217,49.928l13.671,14.165c-0.154-0.028-0.306-0.057-0.458-0.089c-0.151-0.032-0.301-0.065-0.45-0.101
						c-0.149-0.036-0.296-0.074-0.442-0.113c-0.146-0.04-0.29-0.082-0.434-0.126c-0.538-0.164-1.054-0.353-1.547-0.566
						c-0.493-0.213-0.964-0.451-1.412-0.713c-0.448-0.262-0.874-0.549-1.278-0.86c-0.404-0.311-0.785-0.646-1.145-1.006
						c-0.012-0.012-0.024-0.024-0.036-0.036c-0.012-0.012-0.024-0.024-0.036-0.036c-0.012-0.012-0.024-0.024-0.036-0.036
						c-0.012-0.012-0.024-0.024-0.035-0.036l-13.858-14.225c0.012,0.012,0.024,0.025,0.036,0.037s0.024,0.025,0.036,0.037
						s0.024,0.025,0.037,0.037c0.012,0.012,0.024,0.024,0.037,0.037c0.368,0.368,0.758,0.71,1.172,1.028
						c0.414,0.317,0.85,0.61,1.309,0.876c0.46,0.267,0.942,0.509,1.448,0.725c0.506,0.216,1.036,0.407,1.589,0.573
						c0.147,0.044,0.296,0.086,0.445,0.126c0.15,0.04,0.301,0.078,0.454,0.114c0.153,0.036,0.307,0.07,0.462,0.101
						C139.902,49.871,140.059,49.901,140.217,49.928"/>
				</g>
			</g>
		</g>
		<g class="st0">
			<g>
				<polygon class="st1" points="172.858,17.859 185.431,33.107 179.623,33.71 166.876,18.518 				"/>
			</g>
			<g>
				<polygon class="st27" points="183.229,0 195.414,15.8 195.205,25.883 182.96,10.367 				"/>
			</g>
			<g>
				<polygon class="st28" points="190.266,9.545 202.296,25.131 202.186,31.367 190.119,15.959 				"/>
			</g>
			<g>
				<polygon class="st1" points="190.119,15.959 202.186,31.367 195.076,32.105 182.794,16.766 				"/>
			</g>
			<g>
				<polygon class="st27" points="182.794,16.766 195.076,32.105 194.726,49.033 182.342,34.179 				"/>
			</g>
			<g class="st0">
				<defs>
					<path id="SVGID_17_" class="st0" d="M195.346,52.01l-12.381-14.772c-0.114-0.136-0.212-0.301-0.294-0.496
						c-0.083-0.195-0.15-0.42-0.202-0.676c-0.052-0.255-0.088-0.54-0.109-0.854c-0.021-0.315-0.027-0.659-0.017-1.033l12.383,14.854
						c-0.008,0.364,0,0.698,0.022,1.004c0.022,0.306,0.059,0.583,0.111,0.831c0.052,0.248,0.118,0.467,0.199,0.658
						C195.139,51.717,195.235,51.878,195.346,52.01z"/>
				</defs>
				<clipPath id="SVGID_18_">
					<use xlink:href="#SVGID_17_"  style="overflow:visible;"/>
				</clipPath>
				<g class="st29">
					<path class="st15" d="M182.342,34.179l12.383,14.854c-0.001,0.041-0.002,0.081-0.002,0.121s-0.001,0.08-0.001,0.119
						c0,0.039,0,0.078,0,0.117c0,0.039,0.001,0.077,0.001,0.115l-12.386-14.84c0-0.039-0.001-0.078-0.001-0.118
						c0-0.04,0-0.08,0-0.12c0-0.04,0.001-0.081,0.002-0.122S182.341,34.221,182.342,34.179"/>
					<path class="st14" d="M182.338,34.664l12.386,14.84c0.002,0.135,0.007,0.265,0.014,0.39c0.007,0.126,0.016,0.247,0.028,0.363
						c0.012,0.116,0.026,0.228,0.042,0.335c0.016,0.107,0.035,0.21,0.056,0.308L182.476,36.1c-0.021-0.101-0.04-0.206-0.056-0.316
						c-0.016-0.11-0.03-0.225-0.042-0.345c-0.011-0.12-0.02-0.244-0.027-0.373C182.344,34.936,182.34,34.803,182.338,34.664"/>
					<path class="st13" d="M182.476,36.1l12.389,14.801c0.012,0.053,0.024,0.106,0.037,0.156s0.027,0.1,0.041,0.148
						c0.014,0.048,0.029,0.095,0.045,0.14s0.032,0.089,0.049,0.132L182.65,36.691c-0.017-0.044-0.034-0.089-0.05-0.135
						c-0.016-0.046-0.031-0.094-0.046-0.144s-0.028-0.1-0.041-0.152C182.5,36.208,182.487,36.155,182.476,36.1"/>
					<path class="st12" d="M182.65,36.691l12.387,14.785c0.012,0.031,0.025,0.061,0.039,0.091c0.013,0.03,0.027,0.058,0.041,0.086
						c0.014,0.028,0.028,0.055,0.043,0.082s0.03,0.052,0.045,0.078l-12.384-14.777c-0.016-0.026-0.031-0.052-0.046-0.08
						s-0.03-0.055-0.044-0.084c-0.014-0.029-0.028-0.058-0.042-0.089S182.662,36.723,182.65,36.691"/>
					<path class="st11" d="M182.821,37.037l12.384,14.777c0.011,0.018,0.022,0.035,0.034,0.053s0.023,0.034,0.035,0.05
						c0.012,0.016,0.024,0.032,0.036,0.048c0.012,0.016,0.024,0.031,0.037,0.046l-12.381-14.772
						c-0.013-0.015-0.025-0.031-0.038-0.047c-0.012-0.016-0.025-0.032-0.037-0.049c-0.012-0.017-0.024-0.034-0.035-0.052
						C182.843,37.073,182.832,37.055,182.821,37.037"/>
				</g>
			</g>
			<g>
				<polygon class="st28" points="189.631,37.267 201.817,52.079 201.686,59.465 189.456,44.87 				"/>
			</g>
			<g class="st0">
				<defs>
					<path id="SVGID_19_" class="st0" d="M186.395,58.318c-4.228-4.844-8.455-9.689-12.683-14.533
						c0.12,0.138,0.247,0.269,0.38,0.392c0.133,0.123,0.272,0.24,0.417,0.348c0.145,0.109,0.296,0.21,0.454,0.305
						c0.157,0.094,0.321,0.181,0.49,0.261c0.261,0.122,0.532,0.232,0.814,0.328c0.282,0.097,0.574,0.18,0.878,0.25
						c0.304,0.07,0.618,0.128,0.944,0.172c0.326,0.044,0.663,0.075,1.012,0.092c0.346,0.017,0.699,0.028,1.057,0.031
						c0.358,0.003,0.722,0,1.091-0.011c0.369-0.011,0.744-0.029,1.125-0.053c0.381-0.025,0.767-0.057,1.158-0.095
						c0.249-0.025,0.499-0.051,0.751-0.079c0.252-0.028,0.505-0.058,0.76-0.089c0.255-0.031,0.512-0.064,0.771-0.098
						c0.259-0.034,0.52-0.07,0.783-0.107c0.261-0.037,0.517-0.076,0.767-0.118c0.25-0.042,0.494-0.086,0.733-0.133
						c0.239-0.047,0.472-0.096,0.699-0.148c0.227-0.052,0.448-0.105,0.663-0.161l12.229,14.595
						c-0.209,0.053-0.423,0.104-0.643,0.153c-0.22,0.049-0.446,0.095-0.678,0.139c-0.231,0.044-0.468,0.086-0.711,0.125
						c-0.242,0.039-0.49,0.076-0.743,0.11c-0.255,0.034-0.508,0.067-0.759,0.099c-0.251,0.032-0.5,0.062-0.748,0.091
						c-0.247,0.029-0.493,0.056-0.737,0.082c-0.244,0.026-0.487,0.05-0.729,0.073c-0.38,0.035-0.754,0.064-1.123,0.086
						c-0.369,0.022-0.733,0.037-1.092,0.045c-0.359,0.008-0.712,0.01-1.059,0.005c-0.348-0.005-0.69-0.017-1.026-0.036
						c-0.339-0.019-0.666-0.05-0.983-0.095c-0.317-0.045-0.622-0.102-0.917-0.172c-0.295-0.07-0.58-0.153-0.854-0.249
						c-0.274-0.095-0.538-0.203-0.792-0.324c-0.165-0.078-0.324-0.164-0.477-0.256c-0.153-0.092-0.301-0.192-0.442-0.299
						c-0.141-0.107-0.277-0.22-0.406-0.341C186.636,58.581,186.512,58.453,186.395,58.318z"/>
				</defs>
				<clipPath id="SVGID_20_">
					<use xlink:href="#SVGID_19_"  style="overflow:visible;"/>
				</clipPath>
				<g class="st30">
					<path class="st10" d="M189.456,44.87l12.229,14.595c-0.209,0.053-0.423,0.104-0.643,0.153c-0.22,0.049-0.446,0.095-0.678,0.139
						c-0.231,0.044-0.468,0.086-0.711,0.125c-0.242,0.039-0.49,0.076-0.743,0.11c-0.202,0.027-0.402,0.053-0.601,0.079
						c-0.199,0.025-0.396,0.05-0.593,0.074c-0.196,0.024-0.392,0.047-0.586,0.068c-0.194,0.022-0.388,0.043-0.58,0.063
						l-12.389-14.539c0.198-0.022,0.398-0.045,0.598-0.068c0.2-0.024,0.402-0.048,0.604-0.074c0.203-0.026,0.406-0.052,0.611-0.08
						c0.205-0.027,0.411-0.056,0.619-0.085c0.261-0.037,0.517-0.076,0.767-0.118c0.25-0.042,0.494-0.086,0.733-0.133
						c0.239-0.047,0.472-0.096,0.699-0.148C189.02,44.98,189.241,44.926,189.456,44.87"/>
					<path class="st9" d="M184.162,45.738l12.389,14.539c-0.051,0.005-0.103,0.011-0.154,0.016s-0.102,0.01-0.154,0.015
						c-0.051,0.005-0.102,0.01-0.153,0.015s-0.102,0.01-0.153,0.014c-0.38,0.035-0.754,0.064-1.123,0.086
						c-0.369,0.022-0.733,0.037-1.092,0.045c-0.359,0.008-0.712,0.01-1.059,0.005c-0.348-0.005-0.69-0.017-1.026-0.036
						c-0.116-0.006-0.23-0.014-0.343-0.024c-0.113-0.009-0.225-0.02-0.335-0.033c-0.11-0.012-0.219-0.026-0.327-0.042
						c-0.108-0.015-0.214-0.032-0.32-0.051l-12.576-14.5c0.108,0.018,0.218,0.035,0.329,0.05c0.111,0.015,0.223,0.029,0.337,0.041
						c0.114,0.012,0.229,0.023,0.345,0.032s0.234,0.016,0.353,0.022c0.346,0.017,0.699,0.028,1.057,0.031
						c0.358,0.003,0.722,0,1.091-0.011c0.369-0.011,0.744-0.029,1.125-0.053c0.381-0.025,0.767-0.057,1.158-0.095
						c0.052-0.005,0.105-0.01,0.158-0.016c0.053-0.005,0.105-0.011,0.158-0.016s0.105-0.011,0.158-0.017
						C184.057,45.749,184.109,45.743,184.162,45.738"/>
					<path class="st8" d="M177.736,45.788l12.576,14.5c-0.203-0.036-0.402-0.077-0.596-0.123c-0.194-0.047-0.384-0.099-0.569-0.156
						c-0.185-0.058-0.365-0.121-0.541-0.189c-0.176-0.068-0.348-0.142-0.515-0.222c-0.165-0.078-0.324-0.164-0.477-0.256
						c-0.153-0.092-0.301-0.192-0.442-0.299c-0.141-0.107-0.277-0.22-0.406-0.341c-0.13-0.121-0.253-0.248-0.371-0.383
						l-12.683-14.533c0.12,0.138,0.247,0.269,0.38,0.392c0.133,0.123,0.272,0.24,0.417,0.348c0.145,0.109,0.296,0.21,0.454,0.305
						c0.157,0.094,0.321,0.181,0.49,0.261c0.172,0.081,0.348,0.156,0.529,0.225c0.181,0.069,0.366,0.133,0.557,0.191
						c0.19,0.058,0.385,0.111,0.585,0.157C177.322,45.711,177.526,45.752,177.736,45.788"/>
				</g>
			</g>
			<g>
				<path class="st3" d="M183.229,0l-0.269,10.367l7.306-0.822l-0.147,6.414l-7.325,0.806l-0.452,17.413
					c-0.011,0.411-0.003,0.786,0.024,1.126c0.026,0.339,0.072,0.643,0.135,0.91c0.064,0.267,0.146,0.499,0.247,0.694
					c0.101,0.195,0.221,0.354,0.359,0.477c0.138,0.123,0.312,0.225,0.522,0.307c0.21,0.081,0.456,0.142,0.738,0.182
					c0.282,0.04,0.6,0.059,0.954,0.057c0.354-0.002,0.745-0.024,1.171-0.068c0.142-0.015,0.283-0.03,0.422-0.048
					c0.139-0.017,0.277-0.036,0.413-0.056c0.136-0.02,0.271-0.041,0.405-0.063c0.134-0.022,0.266-0.045,0.398-0.069
					c0.129-0.024,0.257-0.049,0.385-0.076c0.127-0.027,0.253-0.055,0.378-0.085c0.125-0.03,0.249-0.061,0.372-0.094
					c0.123-0.033,0.245-0.067,0.366-0.103l-0.174,7.603c-0.215,0.056-0.436,0.11-0.663,0.161c-0.227,0.052-0.46,0.101-0.699,0.148
					c-0.239,0.047-0.483,0.091-0.733,0.133c-0.25,0.042-0.506,0.081-0.767,0.118c-0.263,0.037-0.524,0.072-0.783,0.107
					c-0.259,0.034-0.516,0.067-0.771,0.098c-0.255,0.031-0.508,0.061-0.76,0.089c-0.252,0.028-0.502,0.054-0.751,0.079
					c-0.391,0.039-0.777,0.071-1.158,0.095c-0.38,0.025-0.755,0.043-1.125,0.053c-0.369,0.011-0.733,0.014-1.091,0.011
					c-0.358-0.003-0.71-0.014-1.057-0.031c-0.349-0.017-0.686-0.048-1.012-0.092c-0.326-0.044-0.64-0.101-0.944-0.172
					c-0.303-0.07-0.596-0.154-0.878-0.25c-0.282-0.096-0.553-0.206-0.814-0.328c-0.261-0.122-0.507-0.262-0.739-0.419
					c-0.232-0.157-0.449-0.331-0.652-0.523c-0.203-0.192-0.391-0.4-0.564-0.626c-0.173-0.226-0.332-0.468-0.476-0.728
					c-0.146-0.259-0.271-0.542-0.377-0.848c-0.105-0.306-0.19-0.635-0.255-0.988c-0.065-0.352-0.11-0.728-0.136-1.127
					c-0.026-0.399-0.031-0.821-0.018-1.266l0.622-20.706l-5.982,0.658l0.207-6.365l5.966-0.671l0.311-10.333L183.229,0z"/>
			</g>
		</g>
		<g class="st0">
			<g class="st0">
				<defs>
					<path id="SVGID_21_" class="st0" d="M215.907,14.38l11.303,15.614c-0.086-0.119-0.18-0.231-0.28-0.334
						c-0.101-0.103-0.208-0.199-0.323-0.286c-0.115-0.087-0.237-0.167-0.366-0.239c-0.129-0.072-0.265-0.135-0.408-0.191
						c-0.326-0.126-0.665-0.23-1.02-0.313c-0.354-0.083-0.722-0.145-1.104-0.185c-0.382-0.04-0.779-0.059-1.189-0.057
						c-0.41,0.003-0.835,0.027-1.274,0.072c-0.139,0.014-0.281,0.031-0.426,0.051c-0.145,0.019-0.293,0.041-0.444,0.065
						c-0.151,0.024-0.305,0.05-0.461,0.079c-0.156,0.029-0.315,0.06-0.475,0.093c-0.163,0.033-0.322,0.071-0.477,0.113
						c-0.155,0.042-0.307,0.089-0.455,0.14c-0.148,0.051-0.292,0.106-0.432,0.167c-0.14,0.06-0.277,0.125-0.41,0.194
						c-0.135,0.07-0.265,0.145-0.389,0.225c-0.124,0.08-0.243,0.166-0.357,0.257c-0.114,0.091-0.222,0.188-0.325,0.291
						c-0.103,0.103-0.2,0.212-0.293,0.326c-0.094,0.115-0.177,0.238-0.248,0.368c-0.071,0.13-0.13,0.268-0.178,0.413
						c-0.048,0.145-0.084,0.298-0.109,0.459c-0.025,0.161-0.038,0.329-0.04,0.505c-0.002,0.144,0.006,0.283,0.024,0.417
						c0.017,0.133,0.045,0.261,0.081,0.384c0.037,0.123,0.083,0.24,0.14,0.351c0.056,0.111,0.122,0.217,0.198,0.318
						c-3.886-5.145-7.772-10.29-11.657-15.435c-0.078-0.103-0.145-0.211-0.202-0.326c-0.057-0.114-0.105-0.234-0.142-0.36
						c-0.037-0.126-0.065-0.257-0.082-0.394c-0.017-0.137-0.025-0.28-0.022-0.428c0.003-0.181,0.018-0.354,0.044-0.52
						c0.026-0.165,0.064-0.323,0.114-0.473c0.05-0.15,0.112-0.292,0.185-0.426c0.074-0.134,0.159-0.261,0.257-0.38
						c0.096-0.119,0.197-0.231,0.303-0.338c0.107-0.106,0.218-0.207,0.336-0.301c0.117-0.095,0.24-0.184,0.369-0.267
						c0.128-0.083,0.262-0.161,0.402-0.234c0.137-0.072,0.278-0.14,0.423-0.203c0.145-0.063,0.294-0.121,0.446-0.174
						c0.153-0.053,0.309-0.102,0.469-0.147c0.16-0.044,0.324-0.084,0.492-0.12c0.166-0.035,0.329-0.068,0.49-0.099
						c0.161-0.031,0.319-0.059,0.475-0.084c0.156-0.026,0.308-0.049,0.458-0.07c0.15-0.021,0.296-0.039,0.44-0.055
						c0.452-0.05,0.89-0.078,1.313-0.083c0.423-0.005,0.831,0.011,1.225,0.05c0.394,0.039,0.773,0.1,1.137,0.183
						c0.364,0.083,0.714,0.188,1.049,0.315c0.147,0.056,0.287,0.121,0.42,0.194c0.133,0.073,0.258,0.154,0.376,0.243
						c0.118,0.089,0.228,0.187,0.332,0.292C215.723,14.144,215.819,14.258,215.907,14.38z"/>
				</defs>
				<clipPath id="SVGID_22_">
					<use xlink:href="#SVGID_21_"  style="overflow:visible;"/>
				</clipPath>
				<g class="st31">
					<path class="st8" d="M215.907,14.38l11.303,15.614c-0.086-0.119-0.18-0.231-0.28-0.334c-0.101-0.103-0.208-0.199-0.323-0.286
						c-0.115-0.087-0.237-0.167-0.366-0.239c-0.129-0.072-0.265-0.135-0.408-0.191c-0.129-0.05-0.261-0.096-0.394-0.139
						c-0.134-0.043-0.269-0.083-0.407-0.119c-0.138-0.036-0.278-0.07-0.421-0.099c-0.142-0.03-0.287-0.056-0.434-0.079
						l-11.388-15.637c0.151,0.023,0.3,0.049,0.447,0.079c0.147,0.03,0.291,0.063,0.433,0.099c0.142,0.037,0.282,0.077,0.419,0.12
						c0.137,0.043,0.273,0.09,0.406,0.141c0.147,0.056,0.287,0.121,0.42,0.194c0.133,0.073,0.258,0.154,0.376,0.243
						c0.118,0.089,0.228,0.187,0.332,0.292C215.723,14.144,215.819,14.258,215.907,14.38"/>
					<path class="st9" d="M212.788,12.871l11.388,15.637c-0.224-0.035-0.452-0.062-0.686-0.082
						c-0.234-0.019-0.473-0.031-0.717-0.035c-0.244-0.004-0.493,0-0.748,0.012c-0.254,0.012-0.514,0.032-0.779,0.059
						c-0.012,0.001-0.024,0.003-0.037,0.004c-0.012,0.001-0.025,0.003-0.037,0.004s-0.025,0.003-0.037,0.004
						c-0.012,0.001-0.025,0.003-0.037,0.004l-11.482-15.617c0.013-0.002,0.026-0.003,0.038-0.005
						c0.013-0.002,0.025-0.003,0.038-0.004s0.025-0.003,0.038-0.004s0.025-0.003,0.038-0.004c0.273-0.03,0.541-0.052,0.803-0.066
						c0.262-0.014,0.519-0.02,0.771-0.017c0.252,0.002,0.498,0.013,0.739,0.031C212.322,12.81,212.558,12.837,212.788,12.871"/>
					<path class="st10" d="M209.617,12.862l11.482,15.617c-0.129,0.015-0.26,0.031-0.394,0.05c-0.134,0.019-0.27,0.039-0.409,0.062
						c-0.139,0.023-0.279,0.047-0.422,0.074c-0.143,0.026-0.287,0.055-0.434,0.085c-0.05,0.01-0.1,0.021-0.15,0.032
						c-0.05,0.011-0.099,0.023-0.148,0.035s-0.098,0.024-0.146,0.037c-0.048,0.013-0.096,0.026-0.144,0.04l-11.552-15.59
						c0.049-0.014,0.098-0.028,0.148-0.042c0.05-0.014,0.1-0.027,0.15-0.039c0.05-0.013,0.101-0.025,0.153-0.037
						c0.051-0.012,0.103-0.023,0.155-0.034c0.151-0.032,0.3-0.062,0.448-0.091c0.147-0.028,0.292-0.054,0.435-0.079
						c0.143-0.024,0.283-0.046,0.421-0.067C209.349,12.896,209.484,12.878,209.617,12.862"/>
					<path class="st11" d="M207.301,13.304l11.552,15.59c-0.077,0.022-0.152,0.045-0.227,0.069c-0.075,0.024-0.148,0.05-0.221,0.076
						c-0.073,0.026-0.145,0.054-0.216,0.083c-0.071,0.029-0.141,0.059-0.21,0.09l-11.58-15.575c0.071-0.032,0.144-0.064,0.217-0.094
						c0.073-0.03,0.147-0.059,0.223-0.087c0.075-0.028,0.151-0.054,0.228-0.08C207.144,13.351,207.222,13.327,207.301,13.304"/>
					<path class="st12" d="M206.399,13.637l11.58,15.575c-0.027,0.012-0.053,0.024-0.079,0.036
						c-0.026,0.012-0.053,0.025-0.079,0.037c-0.026,0.013-0.052,0.025-0.078,0.038c-0.026,0.013-0.051,0.026-0.077,0.04
						c-0.028,0.014-0.055,0.029-0.082,0.044s-0.054,0.03-0.081,0.045c-0.027,0.015-0.053,0.031-0.08,0.046
						c-0.026,0.016-0.052,0.031-0.078,0.048l-11.601-15.561c0.027-0.017,0.054-0.033,0.081-0.049
						c0.027-0.016,0.055-0.032,0.082-0.048c0.028-0.016,0.056-0.031,0.084-0.047s0.057-0.03,0.085-0.045
						c0.026-0.014,0.053-0.028,0.079-0.041c0.027-0.014,0.053-0.027,0.08-0.04c0.027-0.013,0.054-0.026,0.081-0.039
						S206.371,13.649,206.399,13.637"/>
					<path class="st13" d="M205.744,13.985l11.601,15.561c-0.042,0.026-0.084,0.053-0.124,0.08
						c-0.041,0.027-0.081,0.055-0.121,0.084c-0.04,0.029-0.079,0.058-0.117,0.087c-0.038,0.03-0.076,0.06-0.114,0.091L205.251,14.34
						c0.039-0.032,0.078-0.064,0.118-0.094c0.04-0.031,0.08-0.061,0.121-0.091c0.041-0.03,0.083-0.059,0.125-0.087
						C205.657,14.04,205.7,14.012,205.744,13.985"/>
					<path class="st14" d="M205.251,14.34l11.617,15.548c-0.042,0.035-0.084,0.071-0.124,0.108c-0.041,0.037-0.081,0.074-0.12,0.113
						c-0.039,0.038-0.078,0.078-0.115,0.118s-0.075,0.081-0.111,0.123l-11.634-15.532c0.037-0.043,0.076-0.086,0.115-0.127
						s0.079-0.082,0.119-0.122c0.041-0.04,0.082-0.079,0.124-0.117S205.208,14.376,205.251,14.34"/>
					<path class="st15" d="M204.765,14.817l11.634,15.532c-0.008,0.009-0.016,0.019-0.024,0.028
						c-0.008,0.009-0.016,0.019-0.024,0.028c-0.008,0.009-0.016,0.019-0.024,0.029c-0.008,0.01-0.016,0.019-0.023,0.029
						c-0.094,0.115-0.177,0.238-0.248,0.368c-0.071,0.13-0.13,0.268-0.178,0.413c-0.048,0.145-0.084,0.298-0.109,0.459
						c-0.025,0.161-0.038,0.329-0.04,0.505c0,0.01,0,0.02,0,0.031c0,0.01,0,0.02,0,0.03c0,0.01,0,0.02,0,0.03
						c0,0.01,0,0.02,0.001,0.03l-11.664-15.471c0-0.01,0-0.021-0.001-0.031c0-0.01,0-0.021,0-0.031c0-0.01,0-0.021,0-0.031
						c0-0.01,0-0.021,0-0.031c0.003-0.181,0.018-0.354,0.044-0.52c0.026-0.165,0.064-0.323,0.114-0.473
						c0.05-0.15,0.112-0.292,0.185-0.426c0.074-0.134,0.159-0.261,0.257-0.38c0.008-0.01,0.016-0.02,0.024-0.03
						s0.016-0.02,0.024-0.03c0.008-0.01,0.016-0.02,0.025-0.029C204.748,14.837,204.756,14.827,204.765,14.817"/>
					<path class="st14" d="M204.066,16.859L215.73,32.33c0.001,0.046,0.003,0.092,0.007,0.137c0.003,0.045,0.008,0.09,0.013,0.134
						c0.005,0.044,0.012,0.087,0.019,0.13c0.007,0.043,0.016,0.085,0.025,0.127l-11.665-15.456c-0.01-0.043-0.018-0.086-0.026-0.13
						c-0.007-0.044-0.014-0.089-0.019-0.134c-0.005-0.045-0.01-0.091-0.013-0.138C204.069,16.953,204.067,16.906,204.066,16.859"/>
					<path class="st13" d="M204.129,17.402l11.665,15.456c0.007,0.032,0.015,0.064,0.024,0.096c0.009,0.032,0.018,0.063,0.028,0.094
						c0.01,0.031,0.02,0.061,0.031,0.091s0.023,0.06,0.035,0.089l-11.663-15.446c-0.013-0.03-0.025-0.061-0.036-0.092
						c-0.011-0.031-0.022-0.062-0.032-0.094s-0.019-0.064-0.028-0.096C204.145,17.467,204.137,17.435,204.129,17.402"/>
					<path class="st12" d="M204.249,17.781l11.663,15.446c0.012,0.027,0.024,0.054,0.036,0.081c0.013,0.027,0.026,0.053,0.039,0.079
						c0.014,0.026,0.028,0.052,0.043,0.078c0.015,0.026,0.03,0.051,0.046,0.076l-11.66-15.438c-0.016-0.026-0.032-0.051-0.047-0.078
						c-0.015-0.026-0.03-0.053-0.044-0.079c-0.014-0.027-0.027-0.054-0.04-0.081S204.261,17.809,204.249,17.781"/>
					<path class="st11" d="M204.417,18.103l11.66,15.438c0.007,0.012,0.015,0.023,0.023,0.035c0.008,0.011,0.015,0.023,0.023,0.034
						c0.008,0.011,0.016,0.023,0.024,0.034c0.008,0.011,0.016,0.022,0.025,0.033l-11.657-15.435
						c-0.009-0.011-0.017-0.023-0.025-0.034c-0.008-0.011-0.017-0.023-0.025-0.035c-0.008-0.012-0.016-0.023-0.024-0.035
						C204.433,18.127,204.425,18.115,204.417,18.103"/>
				</g>
			</g>
			<g class="st0">
				<defs>
					<path id="SVGID_23_" class="st0" d="M216.522,30.344l11.358,15.169c-0.119-0.159-0.26-0.308-0.423-0.446
						c-0.163-0.139-0.348-0.267-0.556-0.385c-0.207-0.118-0.436-0.226-0.687-0.324c-0.251-0.098-0.524-0.185-0.818-0.262
						c-0.496-0.129-1.041-0.255-1.634-0.375c-0.593-0.12-1.234-0.236-1.923-0.347c-0.689-0.111-1.426-0.217-2.211-0.318
						c-0.785-0.101-1.617-0.197-2.497-0.287c-0.361-0.042-0.718-0.087-1.073-0.136c-0.355-0.049-0.707-0.102-1.056-0.16
						c-0.349-0.057-0.696-0.118-1.04-0.183c-0.344-0.065-0.686-0.133-1.025-0.206c-0.341-0.072-0.673-0.153-0.994-0.243
						c-0.321-0.09-0.633-0.189-0.934-0.297c-0.301-0.108-0.593-0.226-0.874-0.353c-0.281-0.127-0.552-0.263-0.814-0.41
						c-0.213-0.118-0.418-0.244-0.613-0.378c-0.196-0.134-0.383-0.276-0.561-0.426c-0.178-0.15-0.348-0.308-0.508-0.474
						c-0.16-0.166-0.312-0.34-0.455-0.521l-11.956-15.224c0.146,0.186,0.301,0.364,0.466,0.533c0.165,0.17,0.338,0.331,0.521,0.484
						c0.183,0.153,0.375,0.298,0.576,0.435c0.201,0.137,0.411,0.265,0.63,0.385c0.268,0.149,0.547,0.287,0.836,0.416
						c0.289,0.129,0.589,0.248,0.899,0.357c0.31,0.109,0.63,0.209,0.961,0.3c0.331,0.09,0.672,0.172,1.023,0.244
						c0.349,0.072,0.701,0.141,1.055,0.205c0.354,0.064,0.711,0.125,1.071,0.181c0.36,0.056,0.722,0.109,1.088,0.157
						c0.365,0.048,0.734,0.093,1.105,0.133c0.907,0.087,1.764,0.18,2.572,0.279c0.809,0.099,1.568,0.203,2.277,0.313
						c0.71,0.11,1.37,0.225,1.981,0.345c0.611,0.12,1.172,0.245,1.682,0.375c0.303,0.078,0.584,0.166,0.842,0.265
						c0.258,0.099,0.494,0.208,0.707,0.329c0.213,0.12,0.403,0.251,0.571,0.393C216.256,30.029,216.4,30.181,216.522,30.344z"/>
				</defs>
				<clipPath id="SVGID_24_">
					<use xlink:href="#SVGID_23_"  style="overflow:visible;"/>
				</clipPath>
				<g class="st32">
					<path class="st8" d="M216.522,30.344l11.358,15.169c-0.119-0.159-0.26-0.308-0.423-0.446c-0.163-0.139-0.348-0.267-0.556-0.385
						c-0.207-0.118-0.436-0.226-0.687-0.324c-0.251-0.098-0.524-0.185-0.818-0.262c-0.238-0.062-0.487-0.123-0.748-0.183
						c-0.26-0.06-0.532-0.119-0.814-0.177c-0.283-0.058-0.576-0.115-0.881-0.171c-0.305-0.056-0.62-0.111-0.947-0.164
						l-11.528-15.193c0.337,0.053,0.662,0.107,0.976,0.163c0.314,0.055,0.616,0.112,0.907,0.17c0.291,0.058,0.57,0.117,0.839,0.177
						c0.268,0.06,0.525,0.121,0.77,0.184c0.303,0.078,0.584,0.166,0.842,0.265c0.258,0.099,0.494,0.208,0.707,0.329
						c0.213,0.12,0.403,0.251,0.571,0.393C216.256,30.029,216.4,30.181,216.522,30.344"/>
					<path class="st9" d="M210.478,28.207L222.006,43.4c-0.354-0.058-0.722-0.115-1.102-0.17c-0.38-0.055-0.774-0.11-1.18-0.162
						c-0.406-0.053-0.825-0.104-1.258-0.154c-0.432-0.05-0.877-0.098-1.335-0.145c-0.183-0.021-0.366-0.043-0.548-0.066
						c-0.182-0.023-0.363-0.047-0.543-0.072c-0.18-0.025-0.36-0.051-0.539-0.078c-0.179-0.027-0.357-0.055-0.535-0.084
						l-11.738-15.174c0.183,0.029,0.366,0.057,0.551,0.083c0.184,0.027,0.369,0.053,0.555,0.077c0.186,0.025,0.372,0.048,0.56,0.071
						c0.187,0.023,0.375,0.044,0.564,0.065c0.472,0.045,0.93,0.092,1.375,0.141c0.445,0.049,0.877,0.099,1.295,0.15
						c0.419,0.052,0.824,0.105,1.215,0.159C209.734,28.094,210.113,28.15,210.478,28.207"/>
					<path class="st8" d="M203.227,27.292l11.738,15.174c-0.172-0.028-0.343-0.057-0.513-0.087c-0.17-0.03-0.34-0.061-0.509-0.093
						c-0.169-0.032-0.338-0.065-0.505-0.098c-0.168-0.034-0.335-0.068-0.502-0.104c-0.341-0.072-0.673-0.153-0.994-0.243
						c-0.321-0.09-0.633-0.189-0.934-0.297c-0.301-0.108-0.593-0.226-0.874-0.353c-0.281-0.127-0.552-0.263-0.814-0.41
						c-0.213-0.118-0.418-0.244-0.613-0.378c-0.196-0.134-0.383-0.276-0.561-0.426c-0.178-0.15-0.348-0.308-0.508-0.474
						c-0.16-0.166-0.312-0.34-0.455-0.521l-11.956-15.224c0.146,0.186,0.301,0.364,0.466,0.533c0.165,0.17,0.338,0.331,0.521,0.484
						c0.183,0.153,0.375,0.298,0.576,0.435c0.201,0.137,0.411,0.265,0.63,0.385c0.268,0.149,0.547,0.287,0.836,0.416
						c0.289,0.129,0.589,0.248,0.899,0.357c0.31,0.109,0.63,0.209,0.961,0.3c0.331,0.09,0.672,0.172,1.023,0.244
						c0.172,0.036,0.344,0.07,0.517,0.104c0.173,0.034,0.346,0.066,0.52,0.098c0.174,0.032,0.349,0.062,0.524,0.092
						C202.874,27.236,203.05,27.264,203.227,27.292"/>
				</g>
			</g>
			<g class="st0">
				<defs>
					<path id="SVGID_25_" class="st0" d="M215.184,50.057l-11.77-14.955c-0.03-0.038-0.06-0.077-0.089-0.116
						c-0.029-0.039-0.058-0.079-0.086-0.12s-0.056-0.081-0.083-0.123c-0.027-0.041-0.054-0.084-0.08-0.126
						c-0.111-0.178-0.208-0.367-0.29-0.567c-0.082-0.2-0.149-0.41-0.202-0.631c-0.053-0.221-0.091-0.453-0.115-0.696
						c-0.024-0.243-0.033-0.497-0.029-0.762l11.784,15.038c-0.003,0.258,0.007,0.505,0.031,0.741
						c0.024,0.236,0.062,0.462,0.115,0.677c0.052,0.215,0.118,0.42,0.199,0.615c0.08,0.195,0.175,0.379,0.284,0.553
						c0.025,0.042,0.051,0.083,0.078,0.123c0.026,0.04,0.053,0.08,0.081,0.12c0.027,0.039,0.055,0.078,0.084,0.117
						C215.126,49.982,215.155,50.02,215.184,50.057z"/>
				</defs>
				<clipPath id="SVGID_26_">
					<use xlink:href="#SVGID_25_"  style="overflow:visible;"/>
				</clipPath>
				<g class="st33">
					<path class="st15" d="M202.442,31.96l11.784,15.038c0,0.022,0,0.045-0.001,0.067c0,0.022,0,0.044,0,0.067
						c0,0.022,0,0.044,0.001,0.066c0,0.022,0.001,0.044,0.001,0.066l-11.785-15.03c0-0.022-0.001-0.045-0.001-0.067
						c0-0.023,0-0.045,0-0.068c0-0.023,0-0.046,0-0.068C202.442,32.006,202.442,31.983,202.442,31.96"/>
					<path class="st14" d="M202.443,32.233l11.785,15.03c0.002,0.097,0.007,0.192,0.013,0.285c0.007,0.093,0.015,0.185,0.026,0.276
						c0.011,0.09,0.023,0.179,0.038,0.266c0.015,0.087,0.032,0.173,0.051,0.257l-11.787-15c-0.019-0.086-0.036-0.174-0.051-0.264
						c-0.015-0.09-0.028-0.181-0.038-0.274c-0.011-0.093-0.019-0.187-0.025-0.283C202.449,32.43,202.445,32.332,202.443,32.233"/>
					<path class="st13" d="M202.569,33.347l11.787,15c0.014,0.061,0.029,0.121,0.045,0.181c0.016,0.059,0.033,0.118,0.051,0.176
						c0.018,0.058,0.038,0.115,0.058,0.171c0.02,0.056,0.042,0.111,0.065,0.166l-11.784-14.981c-0.023-0.056-0.045-0.113-0.066-0.17
						c-0.021-0.058-0.04-0.116-0.059-0.175c-0.018-0.059-0.036-0.119-0.052-0.181C202.598,33.472,202.583,33.41,202.569,33.347"/>
					<path class="st12" d="M202.791,34.059l11.784,14.981c0.02,0.048,0.041,0.095,0.062,0.142c0.022,0.047,0.044,0.093,0.067,0.138
						c0.023,0.045,0.048,0.09,0.073,0.134c0.025,0.044,0.051,0.088,0.078,0.13c0.003,0.005,0.006,0.009,0.008,0.014
						s0.006,0.009,0.008,0.014c0.003,0.005,0.006,0.009,0.008,0.014c0.003,0.005,0.006,0.009,0.009,0.014l-11.777-14.965
						c-0.003-0.005-0.006-0.009-0.009-0.014c-0.003-0.005-0.006-0.009-0.009-0.014c-0.003-0.005-0.006-0.009-0.009-0.014
						s-0.006-0.009-0.009-0.014c-0.027-0.044-0.054-0.089-0.08-0.134c-0.026-0.045-0.05-0.091-0.074-0.138
						c-0.024-0.047-0.047-0.094-0.069-0.142C202.833,34.156,202.811,34.108,202.791,34.059"/>
					<path class="st11" d="M203.112,34.673l11.777,14.965c0.023,0.037,0.046,0.073,0.07,0.108c0.024,0.036,0.048,0.071,0.073,0.106
						s0.05,0.069,0.075,0.103s0.051,0.068,0.077,0.101l-11.77-14.955c-0.027-0.034-0.053-0.069-0.079-0.103
						c-0.026-0.035-0.052-0.07-0.077-0.106c-0.025-0.036-0.05-0.072-0.074-0.109S203.135,34.711,203.112,34.673"/>
				</g>
			</g>
			<g class="st0">
				<defs>
					<path id="SVGID_27_" class="st0" d="M224.823,10.681l11.02,15.774c0.223,0.32,0.424,0.663,0.603,1.031
						c0.179,0.367,0.335,0.759,0.469,1.174c0.134,0.415,0.246,0.855,0.335,1.318c0.089,0.463,0.157,0.951,0.202,1.462
						l-10.994-15.641c-0.044-0.526-0.111-1.026-0.201-1.503c-0.09-0.476-0.203-0.927-0.339-1.353
						c-0.136-0.426-0.295-0.828-0.477-1.205C225.257,11.361,225.051,11.009,224.823,10.681z"/>
				</defs>
				<clipPath id="SVGID_28_">
					<use xlink:href="#SVGID_27_"  style="overflow:visible;"/>
				</clipPath>
				<g class="st34">
					<path class="st11" d="M224.823,10.681l11.02,15.774c0.01,0.015,0.021,0.03,0.031,0.045s0.021,0.03,0.031,0.045
						s0.02,0.03,0.03,0.045c0.01,0.015,0.02,0.03,0.03,0.046l-11.017-15.77c-0.01-0.016-0.021-0.031-0.031-0.047
						c-0.01-0.016-0.021-0.031-0.031-0.046c-0.01-0.015-0.021-0.031-0.031-0.046C224.844,10.712,224.833,10.697,224.823,10.681"/>
					<path class="st12" d="M224.948,10.867l11.017,15.77c0.059,0.091,0.117,0.183,0.173,0.277c0.056,0.094,0.11,0.19,0.163,0.288
						c0.052,0.098,0.103,0.198,0.152,0.299c0.049,0.102,0.096,0.205,0.142,0.31l-11.004-15.74c-0.047-0.108-0.095-0.214-0.145-0.318
						c-0.05-0.104-0.102-0.206-0.156-0.307c-0.054-0.1-0.109-0.199-0.166-0.295C225.067,11.054,225.009,10.959,224.948,10.867"/>
					<path class="st13" d="M225.592,12.071l11.004,15.74c0.055,0.126,0.107,0.255,0.157,0.386c0.05,0.131,0.097,0.265,0.142,0.401
						c0.045,0.136,0.088,0.275,0.128,0.417c0.04,0.142,0.078,0.286,0.113,0.433L226.14,13.752c-0.036-0.151-0.074-0.299-0.114-0.445
						c-0.041-0.145-0.084-0.288-0.13-0.428c-0.046-0.14-0.094-0.277-0.145-0.412C225.701,12.332,225.647,12.2,225.592,12.071"/>
					<path class="st14" d="M226.14,13.752l10.995,15.697c0.037,0.154,0.071,0.312,0.103,0.472c0.032,0.16,0.061,0.323,0.087,0.489
						c0.026,0.166,0.05,0.335,0.071,0.506c0.021,0.172,0.039,0.346,0.055,0.524l-10.994-15.641
						c-0.015-0.183-0.033-0.362-0.054-0.539c-0.021-0.177-0.044-0.35-0.071-0.521c-0.026-0.171-0.056-0.338-0.087-0.503
						C226.212,14.072,226.178,13.91,226.14,13.752"/>
				</g>
			</g>
			<g>
				<polygon class="st1" points="226.457,15.798 237.451,31.439 227.971,32.411 216.68,16.861 				"/>
			</g>
			<g class="st0">
				<defs>
					<path id="SVGID_29_" class="st0" d="M226.134,25.057l11.045,15.378c0.021,0.029,0.042,0.058,0.062,0.088
						c0.021,0.029,0.041,0.059,0.061,0.089c0.02,0.03,0.04,0.06,0.06,0.09c0.02,0.03,0.039,0.061,0.059,0.091
						c0.163,0.259,0.306,0.537,0.428,0.832c0.123,0.295,0.225,0.609,0.307,0.94c0.082,0.332,0.144,0.682,0.184,1.05
						c0.041,0.368,0.061,0.755,0.06,1.16c-0.002,0.574-0.034,1.129-0.096,1.663c-0.062,0.535-0.155,1.049-0.278,1.543
						c-0.123,0.494-0.276,0.968-0.459,1.422c-0.183,0.454-0.396,0.887-0.64,1.301c-0.245,0.413-0.509,0.809-0.79,1.188
						c-0.281,0.379-0.58,0.74-0.898,1.084c-0.317,0.344-0.653,0.671-1.007,0.98c-0.354,0.309-0.727,0.601-1.118,0.876
						c-0.391,0.275-0.797,0.533-1.216,0.775c-0.419,0.242-0.853,0.467-1.3,0.677c-0.447,0.209-0.907,0.401-1.381,0.577
						c-0.474,0.176-0.961,0.335-1.461,0.477c-0.502,0.142-1.006,0.273-1.512,0.392c-0.506,0.119-1.013,0.227-1.522,0.322
						c-0.509,0.096-1.02,0.179-1.532,0.251c-0.512,0.072-1.025,0.132-1.54,0.18c-0.528,0.049-1.053,0.085-1.574,0.108
						c-0.521,0.023-1.039,0.033-1.554,0.03c-0.514-0.003-1.026-0.019-1.533-0.048c-0.507-0.029-1.011-0.071-1.511-0.125
						c-0.502-0.055-0.99-0.127-1.462-0.218c-0.473-0.091-0.931-0.2-1.374-0.327c-0.443-0.127-0.872-0.273-1.285-0.436
						c-0.414-0.163-0.813-0.345-1.197-0.545c-0.311-0.161-0.611-0.335-0.899-0.522c-0.288-0.187-0.564-0.388-0.829-0.601
						c-0.264-0.214-0.517-0.441-0.758-0.681c-0.241-0.24-0.47-0.493-0.687-0.76l-12.042-14.778c0.222,0.273,0.457,0.532,0.704,0.778
						c0.247,0.246,0.506,0.478,0.778,0.696c0.271,0.218,0.555,0.423,0.851,0.614c0.296,0.191,0.604,0.368,0.924,0.531
						c0.395,0.203,0.806,0.388,1.231,0.553c0.426,0.166,0.867,0.313,1.323,0.441c0.456,0.128,0.928,0.238,1.414,0.328
						c0.487,0.091,0.989,0.163,1.506,0.216c0.515,0.053,1.034,0.093,1.557,0.12c0.523,0.027,1.05,0.04,1.58,0.039
						c0.531,0,1.065-0.014,1.602-0.041c0.538-0.027,1.079-0.067,1.623-0.121c0.531-0.053,1.061-0.117,1.589-0.195
						c0.528-0.077,1.055-0.167,1.58-0.268c0.525-0.102,1.049-0.215,1.571-0.341c0.522-0.126,1.042-0.264,1.561-0.413
						c0.516-0.149,1.019-0.316,1.508-0.5c0.489-0.184,0.965-0.385,1.427-0.603c0.462-0.218,0.91-0.453,1.343-0.705
						c0.434-0.252,0.853-0.52,1.258-0.805c0.405-0.285,0.79-0.588,1.157-0.909c0.367-0.321,0.714-0.659,1.043-1.015
						c0.329-0.356,0.639-0.73,0.931-1.122c0.292-0.392,0.565-0.801,0.82-1.228c0.253-0.427,0.475-0.875,0.666-1.343
						c0.191-0.468,0.351-0.957,0.48-1.467c0.129-0.51,0.227-1.04,0.294-1.59c0.067-0.55,0.102-1.121,0.107-1.713
						c0.003-0.417-0.016-0.815-0.056-1.194c-0.04-0.379-0.102-0.738-0.185-1.079c-0.083-0.341-0.187-0.663-0.312-0.966
						c-0.125-0.303-0.271-0.588-0.438-0.853c-0.02-0.031-0.04-0.062-0.06-0.093c-0.02-0.031-0.041-0.062-0.061-0.092
						c-0.021-0.031-0.041-0.061-0.063-0.091C226.176,25.117,226.155,25.087,226.134,25.057z"/>
				</defs>
				<clipPath id="SVGID_30_">
					<use xlink:href="#SVGID_29_"  style="overflow:visible;"/>
				</clipPath>
				<g class="st35">
					<path class="st11" d="M226.134,25.057l11.045,15.378c0.016,0.023,0.033,0.046,0.049,0.069c0.016,0.023,0.032,0.046,0.048,0.069
						c0.016,0.023,0.032,0.047,0.047,0.07c0.016,0.023,0.031,0.047,0.047,0.071l-11.041-15.371
						c-0.016-0.024-0.032-0.048-0.048-0.072s-0.032-0.048-0.049-0.072c-0.016-0.024-0.033-0.047-0.049-0.071
						C226.167,25.104,226.15,25.081,226.134,25.057"/>
					<path class="st12" d="M226.329,25.343l11.041,15.371c0.004,0.007,0.009,0.013,0.013,0.02s0.009,0.013,0.013,0.02
						c0.004,0.007,0.009,0.013,0.013,0.02s0.008,0.013,0.013,0.02c0.037,0.059,0.073,0.12,0.109,0.181
						c0.035,0.061,0.069,0.123,0.102,0.186c0.033,0.063,0.065,0.127,0.096,0.192s0.061,0.131,0.09,0.198l-11.031-15.35
						c-0.029-0.069-0.06-0.136-0.092-0.203c-0.032-0.067-0.064-0.132-0.098-0.197c-0.034-0.065-0.069-0.128-0.105-0.191
						c-0.036-0.063-0.073-0.125-0.111-0.185c-0.004-0.007-0.009-0.014-0.013-0.02s-0.009-0.014-0.013-0.02s-0.009-0.014-0.013-0.02
						C226.338,25.356,226.333,25.349,226.329,25.343"/>
					<path class="st13" d="M226.787,26.201l11.031,15.35c0.036,0.083,0.07,0.168,0.103,0.254c0.033,0.086,0.064,0.174,0.093,0.263
						c0.029,0.089,0.057,0.18,0.083,0.272c0.026,0.092,0.05,0.186,0.073,0.281l-11.025-15.32c-0.023-0.098-0.048-0.194-0.074-0.289
						c-0.026-0.095-0.055-0.188-0.084-0.28c-0.03-0.092-0.061-0.182-0.095-0.27C226.859,26.373,226.824,26.286,226.787,26.201"/>
					<path class="st14" d="M227.145,27.301l11.025,15.32c0.032,0.132,0.06,0.267,0.085,0.406c0.025,0.138,0.047,0.279,0.066,0.423
						c0.019,0.144,0.034,0.291,0.046,0.44c0.012,0.15,0.021,0.302,0.026,0.458l-11.026-15.271c-0.005-0.16-0.013-0.317-0.025-0.471
						c-0.012-0.154-0.027-0.305-0.045-0.453c-0.019-0.148-0.04-0.293-0.066-0.435C227.206,27.576,227.177,27.437,227.145,27.301"/>
					<path class="st15" d="M227.367,29.076l11.026,15.271c0.001,0.035,0.002,0.07,0.003,0.106c0.001,0.035,0.002,0.071,0.002,0.107
						c0.001,0.036,0.001,0.071,0.001,0.107c0,0.036,0,0.072,0,0.108c-0.002,0.574-0.034,1.129-0.096,1.663
						c-0.062,0.535-0.155,1.049-0.278,1.543c-0.123,0.494-0.276,0.968-0.459,1.422c-0.183,0.454-0.396,0.887-0.64,1.301
						c-0.104,0.175-0.211,0.346-0.321,0.515c-0.11,0.168-0.223,0.334-0.34,0.496c-0.116,0.162-0.236,0.322-0.359,0.478
						c-0.123,0.156-0.249,0.309-0.378,0.459l-11.154-15.008c0.134-0.155,0.265-0.314,0.392-0.475
						c0.127-0.162,0.252-0.326,0.372-0.494c0.121-0.168,0.238-0.339,0.353-0.513c0.114-0.174,0.225-0.351,0.333-0.532
						c0.253-0.427,0.475-0.875,0.666-1.343c0.191-0.468,0.351-0.957,0.48-1.467c0.129-0.51,0.227-1.04,0.294-1.59
						c0.067-0.55,0.102-1.121,0.107-1.713c0-0.037,0-0.074,0-0.112c0-0.037,0-0.074-0.001-0.111c0-0.037-0.001-0.073-0.002-0.11
						C227.37,29.148,227.369,29.112,227.367,29.076"/>
					<path class="st14" d="M224.376,37.643l11.154,15.008c-0.119,0.138-0.24,0.273-0.365,0.406c-0.124,0.133-0.251,0.263-0.381,0.39
						c-0.13,0.127-0.263,0.252-0.398,0.374c-0.135,0.122-0.274,0.242-0.415,0.358l-11.21-14.953
						c0.146-0.121,0.289-0.245,0.429-0.372c0.14-0.127,0.278-0.256,0.412-0.388c0.135-0.132,0.266-0.267,0.395-0.404
						C224.126,37.926,224.252,37.786,224.376,37.643"/>
					<path class="st13" d="M222.761,39.226l11.21,14.953c-0.069,0.057-0.138,0.113-0.208,0.169s-0.141,0.111-0.212,0.165
						s-0.143,0.108-0.216,0.161c-0.073,0.053-0.146,0.106-0.22,0.158c-0.066,0.046-0.133,0.092-0.199,0.138
						c-0.067,0.045-0.134,0.09-0.202,0.135c-0.068,0.045-0.136,0.089-0.204,0.132c-0.069,0.044-0.137,0.087-0.207,0.129
						l-11.268-14.908c0.072-0.044,0.143-0.089,0.214-0.135s0.141-0.091,0.211-0.137c0.07-0.046,0.14-0.093,0.209-0.14
						c0.069-0.047,0.138-0.095,0.206-0.143c0.077-0.054,0.152-0.108,0.227-0.164c0.075-0.055,0.15-0.111,0.223-0.167
						s0.147-0.114,0.219-0.171S222.69,39.285,222.761,39.226"/>
					<path class="st12" d="M221.035,40.459l11.268,14.908c-0.162,0.1-0.326,0.196-0.492,0.291c-0.166,0.094-0.334,0.186-0.504,0.276
						c-0.17,0.089-0.343,0.176-0.517,0.26c-0.175,0.084-0.351,0.166-0.53,0.245l-11.337-14.863c0.185-0.083,0.367-0.168,0.548-0.255
						c0.18-0.088,0.359-0.178,0.535-0.271c0.176-0.093,0.35-0.189,0.522-0.287C220.698,40.663,220.868,40.562,221.035,40.459"/>
					<path class="st11" d="M218.923,41.575l11.337,14.863c-0.198,0.088-0.399,0.172-0.603,0.254
						c-0.203,0.081-0.409,0.159-0.618,0.234c-0.209,0.075-0.42,0.147-0.633,0.215c-0.214,0.069-0.43,0.134-0.648,0.196
						c-0.012,0.003-0.024,0.007-0.036,0.01c-0.012,0.003-0.024,0.007-0.036,0.01s-0.024,0.007-0.036,0.01
						c-0.012,0.003-0.024,0.007-0.036,0.01L216.189,42.56c0.013-0.004,0.025-0.007,0.038-0.011c0.013-0.004,0.025-0.007,0.038-0.011
						c0.013-0.004,0.025-0.007,0.038-0.011s0.025-0.007,0.038-0.011c0.226-0.065,0.449-0.134,0.669-0.206
						c0.221-0.072,0.438-0.147,0.654-0.226c0.215-0.078,0.428-0.16,0.638-0.245C218.51,41.755,218.718,41.667,218.923,41.575"/>
					<path class="st10" d="M216.189,42.56l11.424,14.819c-0.463,0.129-0.927,0.248-1.393,0.358
						c-0.466,0.109-0.933,0.209-1.402,0.298c-0.469,0.089-0.939,0.169-1.41,0.238c-0.471,0.069-0.944,0.128-1.417,0.177
						l-11.603-14.752c0.488-0.053,0.976-0.117,1.462-0.192c0.486-0.074,0.971-0.159,1.455-0.254c0.484-0.095,0.966-0.2,1.447-0.316
						C215.232,42.821,215.711,42.696,216.189,42.56"/>
					<path class="st9" d="M210.387,43.698L221.99,58.45c-0.028,0.003-0.056,0.006-0.085,0.009c-0.028,0.003-0.056,0.006-0.085,0.008
						s-0.057,0.006-0.085,0.008c-0.028,0.003-0.057,0.005-0.085,0.008c-0.528,0.049-1.053,0.085-1.574,0.108
						c-0.521,0.023-1.039,0.033-1.554,0.03c-0.514-0.003-1.026-0.019-1.533-0.048c-0.507-0.029-1.011-0.071-1.511-0.125
						c-0.096-0.01-0.192-0.022-0.286-0.033c-0.095-0.012-0.189-0.024-0.283-0.037s-0.187-0.027-0.28-0.041
						c-0.093-0.014-0.185-0.03-0.277-0.045l-11.837-14.709c0.094,0.016,0.189,0.031,0.285,0.045
						c0.096,0.014,0.192,0.028,0.288,0.041s0.194,0.025,0.292,0.037s0.196,0.022,0.295,0.032c0.515,0.053,1.034,0.093,1.557,0.12
						c0.523,0.027,1.05,0.04,1.58,0.039c0.531,0,1.065-0.014,1.602-0.041c0.538-0.027,1.079-0.067,1.623-0.121
						c0.029-0.003,0.058-0.006,0.087-0.009c0.029-0.003,0.058-0.006,0.087-0.009c0.029-0.003,0.058-0.006,0.087-0.009
						C210.329,43.704,210.358,43.701,210.387,43.698"/>
					<path class="st8" d="M202.515,43.583l11.837,14.709c-0.388-0.067-0.766-0.145-1.135-0.236c-0.369-0.09-0.728-0.193-1.077-0.307
						c-0.349-0.114-0.689-0.24-1.019-0.378c-0.33-0.138-0.651-0.287-0.961-0.449c-0.311-0.161-0.611-0.335-0.899-0.522
						c-0.288-0.187-0.564-0.388-0.829-0.601c-0.264-0.214-0.517-0.441-0.758-0.681c-0.241-0.24-0.47-0.493-0.687-0.76
						l-12.042-14.778c0.222,0.273,0.457,0.532,0.704,0.778c0.247,0.246,0.506,0.478,0.778,0.696
						c0.271,0.218,0.555,0.423,0.851,0.614c0.296,0.191,0.604,0.368,0.924,0.531c0.32,0.164,0.649,0.316,0.989,0.456
						c0.34,0.14,0.689,0.267,1.048,0.383c0.36,0.115,0.729,0.218,1.108,0.309C201.726,43.438,202.116,43.516,202.515,43.583"/>
				</g>
			</g>
			<g>
				<path class="st3" d="M210.15,6.361c0.5-0.056,0.997-0.101,1.49-0.135c0.493-0.033,0.982-0.055,1.468-0.065
					c0.486-0.01,0.968-0.008,1.447,0.006c0.479,0.014,0.954,0.04,1.427,0.078c0.47,0.038,0.928,0.093,1.373,0.165
					c0.446,0.072,0.879,0.16,1.3,0.266c0.421,0.105,0.83,0.228,1.226,0.367c0.397,0.139,0.781,0.295,1.153,0.468
					c0.37,0.173,0.724,0.367,1.062,0.58c0.339,0.213,0.661,0.446,0.969,0.699c0.307,0.253,0.599,0.525,0.876,0.818
					c0.277,0.292,0.538,0.604,0.784,0.935c0.244,0.332,0.462,0.69,0.656,1.075c0.194,0.385,0.363,0.796,0.507,1.234
					c0.144,0.438,0.264,0.902,0.359,1.393c0.095,0.491,0.165,1.009,0.211,1.553l-9.777,1.062c-0.031-0.465-0.099-0.887-0.206-1.268
					c-0.107-0.38-0.251-0.718-0.434-1.014c-0.182-0.296-0.403-0.549-0.661-0.761c-0.258-0.211-0.553-0.381-0.886-0.508
					c-0.335-0.127-0.685-0.232-1.049-0.315c-0.364-0.083-0.743-0.144-1.137-0.183c-0.394-0.039-0.802-0.056-1.225-0.05
					c-0.423,0.005-0.861,0.033-1.313,0.083c-0.143,0.016-0.29,0.034-0.44,0.055c-0.15,0.021-0.303,0.044-0.458,0.07
					c-0.156,0.026-0.314,0.054-0.475,0.084c-0.161,0.031-0.324,0.063-0.49,0.099c-0.168,0.036-0.332,0.075-0.492,0.12
					c-0.16,0.044-0.317,0.093-0.469,0.147c-0.153,0.053-0.301,0.111-0.446,0.174c-0.145,0.063-0.286,0.13-0.423,0.203
					c-0.139,0.073-0.273,0.151-0.402,0.234c-0.128,0.083-0.251,0.172-0.369,0.267c-0.117,0.095-0.229,0.195-0.336,0.301
					c-0.106,0.106-0.208,0.219-0.303,0.338c-0.098,0.119-0.183,0.246-0.257,0.38c-0.074,0.134-0.135,0.277-0.185,0.426
					c-0.05,0.15-0.088,0.308-0.114,0.473c-0.026,0.165-0.041,0.339-0.044,0.52c-0.004,0.215,0.013,0.418,0.052,0.61
					c0.038,0.191,0.097,0.371,0.177,0.538c0.08,0.167,0.182,0.323,0.304,0.466c0.123,0.143,0.267,0.274,0.432,0.392
					c0.163,0.119,0.34,0.229,0.53,0.332c0.19,0.103,0.394,0.198,0.61,0.286c0.216,0.087,0.446,0.167,0.688,0.239
					c0.242,0.072,0.497,0.136,0.765,0.193c0.268,0.056,0.545,0.11,0.832,0.16c0.287,0.05,0.584,0.097,0.891,0.141
					c0.307,0.044,0.624,0.085,0.951,0.122c0.327,0.037,0.664,0.072,1.012,0.103c0.345,0.031,0.693,0.064,1.043,0.098
					c0.35,0.034,0.702,0.069,1.056,0.106c0.354,0.036,0.709,0.074,1.067,0.113c0.357,0.039,0.716,0.078,1.076,0.119
					c0.371,0.04,0.741,0.084,1.108,0.133c0.367,0.049,0.733,0.104,1.096,0.162c0.364,0.059,0.725,0.122,1.085,0.19
					c0.36,0.068,0.718,0.139,1.075,0.215c0.354,0.076,0.699,0.163,1.035,0.26c0.335,0.097,0.661,0.206,0.977,0.324
					c0.316,0.119,0.623,0.248,0.92,0.387c0.297,0.14,0.585,0.29,0.863,0.45c0.276,0.16,0.538,0.334,0.788,0.52
					c0.249,0.186,0.486,0.385,0.709,0.598c0.223,0.212,0.432,0.438,0.628,0.677c0.196,0.239,0.379,0.491,0.547,0.757
					c0.167,0.266,0.313,0.55,0.438,0.853c0.125,0.303,0.229,0.625,0.312,0.966c0.083,0.341,0.145,0.701,0.185,1.079
					c0.04,0.379,0.059,0.777,0.056,1.194c-0.004,0.591-0.04,1.162-0.107,1.713c-0.067,0.551-0.165,1.081-0.294,1.59
					c-0.129,0.51-0.289,0.999-0.48,1.467c-0.191,0.468-0.413,0.916-0.666,1.343c-0.255,0.427-0.528,0.837-0.82,1.228
					c-0.292,0.392-0.602,0.766-0.931,1.122c-0.329,0.356-0.676,0.695-1.043,1.015c-0.367,0.321-0.752,0.624-1.157,0.909
					c-0.405,0.285-0.824,0.554-1.258,0.805c-0.434,0.252-0.882,0.487-1.343,0.705c-0.462,0.218-0.938,0.419-1.427,0.603
					c-0.489,0.184-0.992,0.351-1.508,0.5c-0.518,0.15-1.039,0.287-1.561,0.413c-0.522,0.126-1.046,0.24-1.571,0.341
					c-0.525,0.102-1.052,0.191-1.58,0.268c-0.528,0.077-1.058,0.142-1.589,0.195c-0.544,0.054-1.085,0.094-1.623,0.121
					c-0.537,0.027-1.072,0.041-1.602,0.041c-0.53,0-1.057-0.013-1.58-0.039c-0.523-0.027-1.042-0.066-1.557-0.12
					c-0.517-0.053-1.019-0.125-1.506-0.216c-0.487-0.091-0.958-0.2-1.414-0.328c-0.456-0.128-0.897-0.275-1.323-0.441
					c-0.425-0.166-0.836-0.35-1.231-0.553c-0.397-0.203-0.776-0.427-1.136-0.672c-0.36-0.245-0.701-0.511-1.023-0.799
					c-0.322-0.287-0.626-0.596-0.91-0.925c-0.284-0.329-0.55-0.68-0.797-1.052c-0.249-0.371-0.468-0.771-0.657-1.198
					c-0.189-0.427-0.348-0.882-0.478-1.365c-0.129-0.483-0.229-0.993-0.298-1.531c-0.069-0.538-0.109-1.103-0.118-1.696l9.659-1.001
					c-0.005,0.265,0.005,0.519,0.029,0.762c0.024,0.243,0.062,0.475,0.115,0.696c0.053,0.221,0.12,0.432,0.202,0.631
					c0.082,0.2,0.178,0.389,0.29,0.567c0.109,0.179,0.227,0.348,0.354,0.507c0.127,0.16,0.263,0.31,0.408,0.45
					c0.145,0.141,0.298,0.272,0.46,0.394c0.162,0.122,0.332,0.234,0.51,0.337c0.178,0.103,0.363,0.197,0.555,0.282
					c0.192,0.085,0.391,0.162,0.597,0.231c0.206,0.068,0.419,0.128,0.639,0.179c0.22,0.051,0.447,0.094,0.681,0.129
					c0.234,0.035,0.47,0.062,0.709,0.081c0.239,0.019,0.48,0.031,0.724,0.035c0.244,0.004,0.49,0,0.738-0.01
					c0.249-0.011,0.5-0.029,0.753-0.055c0.181-0.018,0.364-0.042,0.55-0.071c0.186-0.029,0.374-0.063,0.564-0.102
					c0.191-0.039,0.383-0.084,0.579-0.134c0.195-0.05,0.393-0.106,0.593-0.168c0.2-0.062,0.396-0.128,0.587-0.2
					c0.191-0.072,0.378-0.148,0.56-0.23c0.182-0.082,0.36-0.169,0.533-0.262c0.173-0.093,0.342-0.191,0.507-0.294
					c0.165-0.104,0.322-0.213,0.473-0.33c0.151-0.116,0.295-0.239,0.433-0.369s0.269-0.266,0.393-0.409
					c0.124-0.143,0.242-0.293,0.352-0.449c0.111-0.157,0.208-0.321,0.292-0.493c0.084-0.172,0.154-0.352,0.211-0.54
					c0.057-0.188,0.1-0.384,0.129-0.587c0.03-0.203,0.046-0.415,0.048-0.634c0.004-0.371-0.056-0.711-0.182-1.022
					c-0.125-0.31-0.315-0.591-0.569-0.841c-0.254-0.25-0.572-0.471-0.954-0.661c-0.382-0.19-0.827-0.35-1.336-0.481
					c-0.511-0.13-1.072-0.255-1.682-0.375c-0.61-0.12-1.271-0.235-1.981-0.345c-0.709-0.11-1.469-0.214-2.277-0.313
					c-0.808-0.099-1.665-0.192-2.572-0.279c-0.371-0.04-0.74-0.085-1.105-0.133c-0.365-0.048-0.728-0.101-1.088-0.157
					c-0.36-0.056-0.717-0.117-1.071-0.181c-0.354-0.064-0.706-0.133-1.055-0.205c-0.351-0.072-0.692-0.153-1.023-0.244
					c-0.331-0.09-0.651-0.19-0.961-0.3c-0.31-0.109-0.609-0.228-0.899-0.357c-0.289-0.129-0.568-0.267-0.836-0.416
					c-0.271-0.148-0.528-0.309-0.771-0.483c-0.243-0.174-0.472-0.36-0.687-0.558c-0.215-0.199-0.416-0.41-0.604-0.634
					c-0.187-0.224-0.36-0.46-0.519-0.709c-0.161-0.249-0.301-0.515-0.419-0.799c-0.118-0.284-0.215-0.584-0.291-0.902
					c-0.076-0.318-0.13-0.653-0.164-1.004c-0.034-0.352-0.046-0.72-0.038-1.104c0.012-0.567,0.052-1.111,0.121-1.633
					c0.069-0.521,0.165-1.019,0.29-1.495c0.125-0.476,0.278-0.929,0.459-1.36c0.181-0.431,0.391-0.84,0.629-1.228
					c0.238-0.387,0.493-0.757,0.767-1.11c0.274-0.352,0.565-0.688,0.875-1.006c0.31-0.318,0.638-0.619,0.984-0.904
					c0.346-0.285,0.711-0.553,1.094-0.804c0.381-0.251,0.774-0.488,1.179-0.711c0.405-0.223,0.822-0.431,1.251-0.625
					c0.429-0.194,0.87-0.374,1.323-0.54c0.453-0.166,0.918-0.318,1.396-0.456c0.475-0.138,0.954-0.266,1.436-0.383
					c0.482-0.118,0.967-0.225,1.455-0.322c0.488-0.097,0.98-0.184,1.474-0.261C209.153,6.485,209.65,6.418,210.15,6.361z"/>
			</g>
		</g>
	</g>
</g>
</svg>